<?xml version="1.0" encoding="UTF-8" ?>
<!DOCTYPE svg PUBLIC "-//W3C//DTD SVG 1.1//EN" "http://www.w3.org/Graphics/SVG/1.1/DTD/svg11.dtd">
<svg width="300pt" height="300pt" viewBox="0 0 300 300" version="1.1" xmlns="http://www.w3.org/2000/svg">
<path fill="#ffffff" d=" M 0.00 0.00 L 300.00 0.00 L 300.00 300.00 L 0.00 300.00 L 0.00 0.00 Z" />
<path fill="#06090a" d=" M 62.62 55.73 C 88.80 25.40 130.15 9.15 170.00 13.02 C 172.95 13.34 172.88 18.77 169.89 19.00 C 149.07 24.22 129.85 36.32 116.98 53.60 L 116.78 53.57 C 115.94 53.44 114.26 53.18 113.41 53.06 C 115.28 50.41 117.26 47.83 119.62 45.60 C 120.03 45.18 120.43 44.77 120.83 44.35 C 129.84 34.07 141.60 26.72 153.87 20.95 L 154.05 20.89 C 158.68 19.53 163.17 17.75 167.80 16.38 C 164.75 15.66 161.61 15.56 158.50 15.55 C 155.06 15.49 151.65 15.88 148.24 16.28 C 142.17 16.07 136.23 17.57 130.34 18.83 C 126.91 19.45 123.52 20.33 120.22 21.45 C 116.70 22.65 113.17 23.87 109.85 25.56 C 103.03 28.72 96.06 31.68 89.87 36.00 C 84.80 39.08 80.42 43.09 75.76 46.74 C 70.08 47.71 67.93 54.12 62.62 55.73 Z" />
<path fill="#324962" d=" M 130.34 18.83 C 136.23 17.57 142.17 16.07 148.24 16.28 C 147.48 16.61 146.73 16.95 145.98 17.29 C 146.91 17.35 148.76 17.47 149.69 17.53 C 148.92 18.87 148.17 20.21 147.33 21.51 C 143.72 23.77 140.38 26.44 136.71 28.64 C 136.06 28.35 134.75 27.78 134.10 27.50 C 130.51 29.58 127.45 32.46 123.66 34.20 C 123.98 31.48 127.70 30.59 127.61 27.92 C 121.97 31.04 118.59 37.71 111.83 38.79 C 110.50 37.44 109.17 36.10 107.84 34.74 C 108.75 33.89 109.61 32.99 110.49 32.12 C 111.50 31.22 112.51 30.33 113.47 29.38 C 114.72 30.44 115.97 31.49 117.22 32.55 C 119.03 31.65 121.03 30.96 122.47 29.47 C 125.00 26.29 129.44 24.72 133.43 25.16 C 136.25 23.55 138.93 21.69 141.45 19.64 C 137.73 18.69 133.68 21.37 130.34 18.83 Z" />
<path fill="#637ba5" d=" M 148.24 16.28 C 151.65 15.88 155.06 15.49 158.50 15.55 C 157.03 17.35 155.60 19.17 154.05 20.89 L 153.87 20.95 C 151.67 20.79 149.45 20.88 147.33 21.51 C 148.17 20.21 148.92 18.87 149.69 17.53 C 148.76 17.47 146.91 17.35 145.98 17.29 C 146.73 16.95 147.48 16.61 148.24 16.28 Z" />
<path fill="#3a4860" d=" M 158.50 15.55 C 161.61 15.56 164.75 15.66 167.80 16.38 C 163.17 17.75 158.68 19.53 154.05 20.89 C 155.60 19.17 157.03 17.35 158.50 15.55 Z" />
<path fill="#2b3a4e" d=" M 120.22 21.45 C 123.52 20.33 126.91 19.45 130.34 18.83 C 133.68 21.37 137.73 18.69 141.45 19.64 C 138.93 21.69 136.25 23.55 133.43 25.16 C 129.44 24.72 125.00 26.29 122.47 29.47 C 121.03 30.96 119.03 31.65 117.22 32.55 C 115.97 31.49 114.72 30.44 113.47 29.38 C 115.59 26.64 118.21 24.35 121.18 22.56 C 120.94 22.29 120.46 21.73 120.22 21.45 Z" />
<path fill="#64a4d9" d=" M 147.33 21.51 C 149.45 20.88 151.67 20.79 153.87 20.95 C 141.60 26.72 129.84 34.07 120.83 44.35 C 120.47 44.01 119.76 43.34 119.40 43.00 C 124.88 37.90 130.41 32.73 136.71 28.64 C 140.38 26.44 143.72 23.77 147.33 21.51 Z" />
<path fill="#3a5572" d=" M 109.85 25.56 C 113.17 23.87 116.70 22.65 120.22 21.45 C 120.46 21.73 120.94 22.29 121.18 22.56 C 118.21 24.35 115.59 26.64 113.47 29.38 C 112.51 30.33 111.50 31.22 110.49 32.12 C 105.18 33.61 100.24 37.52 94.46 36.23 C 96.68 34.31 98.75 32.23 100.88 30.22 C 102.12 30.59 103.38 30.84 104.66 30.97 C 104.71 30.43 104.81 29.34 104.86 28.80 C 106.48 27.66 108.16 26.60 109.85 25.56 Z" />
<path fill="#92ebff" d=" M 89.87 36.00 C 96.06 31.68 103.03 28.72 109.85 25.56 C 108.16 26.60 106.48 27.66 104.86 28.80 C 104.81 29.34 104.71 30.43 104.66 30.97 C 103.38 30.84 102.12 30.59 100.88 30.22 C 98.75 32.23 96.68 34.31 94.46 36.23 C 93.49 37.05 92.52 37.87 91.55 38.69 C 86.33 40.14 82.97 44.58 78.88 47.80 C 75.37 50.55 72.39 53.89 68.97 56.74 C 68.35 56.57 67.10 56.23 66.47 56.06 C 69.56 52.94 72.80 49.98 75.76 46.74 C 80.42 43.09 84.80 39.08 89.87 36.00 Z" />
<path fill="#355877" d=" M 134.10 27.50 C 134.75 27.78 136.06 28.35 136.71 28.64 C 130.41 32.73 124.88 37.90 119.40 43.00 C 119.76 43.34 120.47 44.01 120.83 44.35 C 120.43 44.77 120.03 45.18 119.62 45.60 C 119.05 45.53 117.92 45.39 117.35 45.32 C 116.55 47.25 115.19 48.79 113.60 50.10 C 112.16 49.33 110.71 48.58 109.26 47.83 C 110.69 46.09 112.08 44.33 113.45 42.54 C 111.10 43.29 107.94 46.19 105.88 43.36 C 105.37 41.42 105.28 39.40 105.02 37.42 C 105.32 37.03 105.91 36.25 106.21 35.86 C 106.62 35.58 107.44 35.02 107.84 34.74 C 109.17 36.10 110.50 37.44 111.83 38.79 C 118.59 37.71 121.97 31.04 127.61 27.92 C 127.70 30.59 123.98 31.48 123.66 34.20 C 127.45 32.46 130.51 29.58 134.10 27.50 Z" />
<path fill="#447095" d=" M 94.46 36.23 C 100.24 37.52 105.18 33.61 110.49 32.12 C 109.61 32.99 108.75 33.89 107.84 34.74 C 107.44 35.02 106.62 35.58 106.21 35.86 C 100.93 38.46 96.61 42.52 91.77 45.80 C 90.01 45.38 88.26 44.95 86.51 44.49 C 88.39 42.74 90.07 40.79 91.55 38.69 C 92.52 37.87 93.49 37.05 94.46 36.23 Z" />
<path fill="#4982b3" d=" M 91.77 45.80 C 96.61 42.52 100.93 38.46 106.21 35.86 C 105.91 36.25 105.32 37.03 105.02 37.42 C 103.68 39.23 102.14 40.87 100.55 42.46 C 100.53 44.35 100.75 46.29 100.27 48.15 C 99.13 50.56 97.31 52.55 95.72 54.66 C 96.40 55.93 97.09 57.20 97.78 58.47 C 96.72 58.54 95.67 58.61 94.61 58.67 C 94.29 58.98 93.63 59.61 93.31 59.92 C 93.86 60.51 94.40 61.11 94.94 61.71 C 94.50 62.02 93.64 62.64 93.21 62.95 C 91.90 62.12 90.83 60.47 89.25 60.30 C 85.94 62.48 82.57 66.70 78.13 64.81 C 81.31 61.45 84.69 58.30 88.12 55.19 C 89.63 54.00 90.23 52.13 90.88 50.41 C 88.10 52.55 85.86 55.27 83.90 58.16 C 83.39 57.42 82.37 55.93 81.85 55.18 C 82.65 57.36 82.90 59.75 81.01 61.47 C 79.95 60.83 78.90 60.20 77.85 59.56 C 78.23 60.76 78.61 61.95 79.00 63.14 C 77.83 64.29 76.62 65.39 75.35 66.44 C 74.43 65.88 73.51 65.32 72.59 64.75 C 71.43 65.12 70.27 65.49 69.10 65.86 C 68.66 65.36 67.77 64.35 67.33 63.84 C 74.01 57.66 80.10 50.94 86.51 44.49 C 88.26 44.95 90.01 45.38 91.77 45.80 Z" />
<path fill="#3a678b" d=" M 100.55 42.46 C 102.14 40.87 103.68 39.23 105.02 37.42 C 105.28 39.40 105.37 41.42 105.88 43.36 C 107.94 46.19 111.10 43.29 113.45 42.54 C 112.08 44.33 110.69 46.09 109.26 47.83 C 110.71 48.58 112.16 49.33 113.60 50.10 C 113.25 50.53 112.57 51.41 112.22 51.85 C 106.70 53.65 101.10 56.87 98.57 62.32 C 98.35 65.03 98.30 67.81 96.99 70.28 C 96.70 70.90 96.12 72.15 95.84 72.77 L 95.65 71.92 C 94.99 68.55 95.70 65.07 94.94 61.71 C 94.40 61.11 93.86 60.51 93.31 59.92 C 93.63 59.61 94.29 58.98 94.61 58.67 C 95.67 58.61 96.72 58.54 97.78 58.47 C 97.09 57.20 96.40 55.93 95.72 54.66 C 97.31 52.55 99.13 50.56 100.27 48.15 C 100.75 46.29 100.53 44.35 100.55 42.46 Z" />
<path fill="#66c1ff" d=" M 78.88 47.80 C 82.97 44.58 86.33 40.14 91.55 38.69 C 90.07 40.79 88.39 42.74 86.51 44.49 C 80.10 50.94 74.01 57.66 67.33 63.84 C 61.74 69.50 55.02 74.16 50.82 81.06 C 49.98 81.17 49.15 81.30 48.33 81.44 C 53.22 72.23 59.36 63.69 66.47 56.06 C 67.10 56.23 68.35 56.57 68.97 56.74 C 72.39 53.89 75.37 50.55 78.88 47.80 Z" />
<path fill="#72c2ff" d=" M 91.65 49.94 C 93.76 47.22 96.22 44.66 99.06 42.70 C 97.79 44.24 96.45 45.74 95.52 47.52 C 94.23 48.33 92.94 49.14 91.65 49.94 Z" />
<path fill="#5fb1f9" d=" M 117.35 45.32 C 117.92 45.39 119.05 45.53 119.62 45.60 C 117.26 47.83 115.28 50.41 113.41 53.06 C 112.19 54.83 111.00 56.63 109.78 58.40 C 106.51 59.36 105.22 62.99 102.78 65.09 C 103.96 59.40 109.31 56.47 112.22 51.85 C 112.57 51.41 113.25 50.53 113.60 50.10 C 115.19 48.79 116.55 47.25 117.35 45.32 Z" />
<path fill="#0a395a" d=" M 62.62 55.73 C 67.93 54.12 70.08 47.71 75.76 46.74 C 72.80 49.98 69.56 52.94 66.47 56.06 C 59.36 63.69 53.22 72.23 48.33 81.44 C 47.93 82.16 47.54 82.89 47.17 83.63 C 46.11 85.78 45.02 87.93 44.07 90.14 C 42.97 90.21 41.87 90.28 40.77 90.35 C 46.10 77.77 53.27 65.70 62.62 55.73 Z" />
<path fill="#5fb1f9" d=" M 83.90 58.16 C 85.86 55.27 88.10 52.55 90.88 50.41 C 90.23 52.13 89.63 54.00 88.12 55.19 C 84.69 58.30 81.31 61.45 78.13 64.81 C 77.48 65.49 76.84 66.19 76.20 66.89 C 75.99 66.78 75.56 66.55 75.35 66.44 C 76.62 65.39 77.83 64.29 79.00 63.14 C 78.61 61.95 78.23 60.76 77.85 59.56 C 78.90 60.20 79.95 60.83 81.01 61.47 C 82.90 59.75 82.65 57.36 81.85 55.18 C 82.37 55.93 83.39 57.42 83.90 58.16 Z" />
<path fill="#437cb1" d=" M 98.57 62.32 C 101.10 56.87 106.70 53.65 112.22 51.85 C 109.31 56.47 103.96 59.40 102.78 65.09 C 102.64 65.27 102.35 65.64 102.20 65.82 C 100.58 67.43 98.81 68.89 96.99 70.28 C 98.30 67.81 98.35 65.03 98.57 62.32 Z" />
<path fill="#4c89bc" d=" M 102.34 53.19 C 104.36 53.93 101.25 56.32 100.02 55.64 C 99.60 54.39 101.25 53.32 102.34 53.19 Z" />
<path fill="#0a3757" d=" M 109.78 58.40 C 111.00 56.63 112.19 54.83 113.41 53.06 C 114.26 53.18 115.94 53.44 116.78 53.57 C 110.53 62.42 105.06 71.95 101.93 82.38 C 101.11 81.58 100.28 80.77 99.45 79.97 C 100.32 77.53 101.17 75.10 102.16 72.71 C 104.46 67.82 106.90 62.99 109.78 58.40 Z" />
<path fill="#90f6ff" d=" M 102.78 65.09 C 105.22 62.99 106.51 59.36 109.78 58.40 C 106.90 62.99 104.46 67.82 102.16 72.71 C 101.66 73.10 100.67 73.87 100.17 74.26 C 100.58 71.39 101.20 68.54 102.20 65.82 C 102.35 65.64 102.64 65.27 102.78 65.09 Z" />
<path fill="#376ca1" d=" M 89.25 60.30 C 90.83 60.47 91.90 62.12 93.21 62.95 C 92.45 63.91 91.81 64.99 90.93 65.85 C 86.17 65.90 81.42 67.66 77.90 70.88 C 72.29 75.68 67.30 81.21 62.95 87.17 C 69.43 86.76 72.90 80.72 78.17 77.92 C 76.22 80.81 73.51 83.03 71.00 85.40 C 70.52 87.32 72.67 88.15 74.09 88.72 C 75.92 88.85 77.03 87.16 78.40 86.25 C 80.48 84.90 82.90 84.18 85.04 82.94 C 83.16 85.04 81.06 86.93 79.06 88.91 C 77.50 90.57 75.92 92.22 74.19 93.70 C 71.26 94.71 68.39 95.91 65.62 97.28 C 64.44 96.92 63.26 96.55 62.08 96.18 C 61.35 96.68 60.63 97.17 59.91 97.67 C 59.17 96.04 58.04 94.67 56.79 93.42 C 58.49 90.84 59.13 87.84 58.82 84.78 C 64.20 78.42 70.86 73.28 76.20 66.89 C 76.84 66.19 77.48 65.49 78.13 64.81 C 82.57 66.70 85.94 62.48 89.25 60.30 Z" />
<path fill="#2c5a86" d=" M 93.21 62.95 C 93.64 62.64 94.50 62.02 94.94 61.71 C 95.70 65.07 94.99 68.55 95.65 71.92 C 92.40 75.86 88.56 79.25 85.04 82.94 C 82.90 84.18 80.48 84.90 78.40 86.25 C 77.03 87.16 75.92 88.85 74.09 88.72 C 72.67 88.15 70.52 87.32 71.00 85.40 C 73.51 83.03 76.22 80.81 78.17 77.92 C 72.90 80.72 69.43 86.76 62.95 87.17 C 67.30 81.21 72.29 75.68 77.90 70.88 C 81.42 67.66 86.17 65.90 90.93 65.85 C 91.81 64.99 92.45 63.91 93.21 62.95 Z" />
<path fill="#3d7ab6" d=" M 50.82 81.06 C 55.02 74.16 61.74 69.50 67.33 63.84 C 67.77 64.35 68.66 65.36 69.10 65.86 C 70.27 65.49 71.43 65.12 72.59 64.75 C 73.51 65.32 74.43 65.88 75.35 66.44 C 75.56 66.55 75.99 66.78 76.20 66.89 C 70.86 73.28 64.20 78.42 58.82 84.78 C 59.13 87.84 58.49 90.84 56.79 93.42 C 58.04 94.67 59.17 96.04 59.91 97.67 C 60.63 97.17 61.35 96.68 62.08 96.18 C 63.26 96.55 64.44 96.92 65.62 97.28 C 68.39 95.91 71.26 94.71 74.19 93.70 C 72.27 95.54 70.43 97.46 68.67 99.46 C 67.43 99.56 66.19 99.67 64.95 99.78 C 64.09 100.67 63.25 101.60 62.28 102.37 C 60.22 103.54 57.98 100.35 56.15 102.17 C 54.35 103.68 52.71 105.37 50.81 106.77 C 50.59 106.51 50.16 106.00 49.94 105.75 L 51.33 104.79 C 52.88 103.24 54.26 101.53 55.67 99.86 C 54.66 98.95 53.66 98.05 52.66 97.14 C 53.35 96.24 54.03 95.34 54.71 94.44 C 53.70 93.36 52.62 92.34 51.45 91.44 C 52.78 89.76 54.14 88.12 55.53 86.50 C 54.83 85.67 54.13 84.83 53.44 84.00 C 52.28 85.65 51.57 88.15 49.17 88.26 C 49.63 85.84 50.14 83.43 50.82 81.06 Z" />
<path fill="#55aeff" d=" M 96.99 70.28 C 98.81 68.89 100.58 67.43 102.20 65.82 C 101.20 68.54 100.58 71.39 100.17 74.26 C 99.05 75.08 97.91 75.89 96.79 76.71 C 96.47 75.39 96.13 74.09 95.84 72.77 C 96.12 72.15 96.70 70.90 96.99 70.28 Z" />
<path fill="#4997e4" d=" M 95.65 71.92 L 95.84 72.77 C 96.13 74.09 96.47 75.39 96.79 76.71 C 97.91 75.89 99.05 75.08 100.17 74.26 C 100.67 73.87 101.66 73.10 102.16 72.71 C 101.17 75.10 100.32 77.53 99.45 79.97 C 98.81 82.50 97.10 85.01 97.64 87.69 L 97.31 88.00 C 96.48 88.63 95.63 89.25 94.78 89.86 C 95.54 85.23 96.91 80.74 98.47 76.32 C 93.84 80.10 89.77 84.46 85.54 88.66 C 83.37 88.60 81.21 88.69 79.06 88.91 C 81.06 86.93 83.16 85.04 85.04 82.94 C 88.56 79.25 92.40 75.86 95.65 71.92 Z" />
<path fill="#336699" d=" M 85.54 88.66 C 89.77 84.46 93.84 80.10 98.47 76.32 C 96.91 80.74 95.54 85.23 94.78 89.86 C 93.23 91.74 91.46 93.41 89.81 95.19 C 89.39 94.80 88.55 94.04 88.13 93.65 C 85.22 94.20 82.30 94.66 79.36 94.96 C 81.40 92.84 83.41 90.69 85.54 88.66 Z" />
<path fill="#0a4670" d=" M 97.64 87.69 C 97.10 85.01 98.81 82.50 99.45 79.97 C 100.28 80.77 101.11 81.58 101.93 82.38 C 97.32 96.56 96.47 111.88 98.88 126.56 C 98.19 127.01 96.82 127.90 96.13 128.35 C 94.47 120.12 94.16 111.64 94.79 103.29 C 95.35 98.15 95.84 92.97 97.31 88.00 L 97.64 87.69 Z" />
<path fill="#4c94d9" d=" M 47.17 83.63 C 47.54 82.89 47.93 82.16 48.33 81.44 C 49.15 81.30 49.98 81.17 50.82 81.06 C 50.14 83.43 49.63 85.84 49.17 88.26 C 51.57 88.15 52.28 85.65 53.44 84.00 C 54.13 84.83 54.83 85.67 55.53 86.50 C 54.14 88.12 52.78 89.76 51.45 91.44 C 52.62 92.34 53.70 93.36 54.71 94.44 C 54.03 95.34 53.35 96.24 52.66 97.14 C 53.66 98.05 54.66 98.95 55.67 99.86 C 54.26 101.53 52.88 103.24 51.33 104.79 C 50.13 101.66 49.87 97.97 47.27 95.58 C 47.60 94.85 47.93 94.11 48.26 93.38 C 47.71 92.36 47.17 91.33 46.63 90.30 C 47.39 88.33 48.14 86.36 48.88 84.39 C 48.45 84.20 47.60 83.82 47.17 83.63 Z" />
<path fill="#5baaef" d=" M 47.17 83.63 C 47.60 83.82 48.45 84.20 48.88 84.39 C 48.14 86.36 47.39 88.33 46.63 90.30 C 47.17 91.33 47.71 92.36 48.26 93.38 C 47.93 94.11 47.60 94.85 47.27 95.58 C 49.87 97.97 50.13 101.66 51.33 104.79 L 49.94 105.75 C 49.58 105.68 48.86 105.54 48.50 105.47 C 47.75 105.32 46.23 105.04 45.47 104.90 C 45.55 103.10 45.50 101.29 45.30 99.50 C 44.58 99.49 43.15 99.48 42.44 99.47 C 43.70 97.30 43.53 94.83 43.19 92.44 C 43.47 91.67 43.76 90.90 44.07 90.14 C 45.02 87.93 46.11 85.78 47.17 83.63 Z" />
<path fill="#5fb1f9" d=" M 79.06 88.91 C 81.21 88.69 83.37 88.60 85.54 88.66 C 83.41 90.69 81.40 92.84 79.36 94.96 C 76.24 97.98 73.17 101.05 70.29 104.31 C 66.58 107.03 63.88 111.04 59.62 112.98 C 60.03 110.59 59.93 107.73 61.88 105.98 C 64.26 103.93 66.69 101.92 68.67 99.46 C 70.43 97.46 72.27 95.54 74.19 93.70 C 75.92 92.22 77.50 90.57 79.06 88.91 Z" />
<path fill="#82edff" d=" M 94.78 89.86 C 95.63 89.25 96.48 88.63 97.31 88.00 C 95.84 92.97 95.35 98.15 94.79 103.29 C 94.29 102.58 93.80 101.86 93.30 101.15 C 91.79 109.20 92.16 117.46 93.29 125.52 C 91.96 127.16 90.73 128.87 89.55 130.62 C 88.90 129.72 88.25 128.82 87.60 127.93 C 86.17 127.61 84.23 128.09 83.34 126.64 C 80.66 122.50 78.97 117.74 77.93 112.94 C 76.84 109.31 80.29 106.37 83.34 105.25 C 86.04 104.13 88.43 106.51 90.75 107.56 C 92.05 101.65 93.99 95.88 94.78 89.86 Z" />
<path fill="#0a4771" d=" M 40.77 90.35 C 41.87 90.28 42.97 90.21 44.07 90.14 C 43.76 90.90 43.47 91.67 43.19 92.44 C 38.44 103.58 35.34 115.40 34.26 127.47 L 34.18 127.99 C 33.10 128.27 32.02 128.54 30.94 128.82 C 32.27 115.61 35.38 102.51 40.77 90.35 Z" />
<path fill="#79d8ff" d=" M 89.81 95.19 C 91.46 93.41 93.23 91.74 94.78 89.86 C 93.99 95.88 92.05 101.65 90.75 107.56 C 88.43 106.51 86.04 104.13 83.34 105.25 C 80.29 106.37 76.84 109.31 77.93 112.94 C 78.97 117.74 80.66 122.50 83.34 126.64 C 84.23 128.09 86.17 127.61 87.60 127.93 C 88.25 128.82 88.90 129.72 89.55 130.62 C 90.73 128.87 91.96 127.16 93.29 125.52 C 93.82 129.97 94.57 134.40 95.75 138.72 C 96.68 143.65 95.31 149.58 98.63 153.71 C 97.70 154.32 96.76 154.92 95.82 155.52 C 94.23 152.54 93.41 149.25 92.47 146.03 C 92.38 148.76 92.18 151.49 91.77 154.20 C 89.25 151.54 88.33 147.82 85.80 145.18 C 81.80 140.84 79.23 135.46 76.60 130.24 C 73.98 125.14 73.01 119.44 70.84 114.17 C 72.76 112.28 74.53 110.26 76.41 108.34 C 80.61 103.68 85.58 99.79 89.81 95.19 Z" />
<path fill="#9fffff" d=" M 43.19 92.44 C 43.53 94.83 43.70 97.30 42.44 99.47 C 41.33 102.10 41.37 105.02 40.66 107.76 C 38.95 115.08 36.93 122.36 36.28 129.87 C 36.23 130.28 36.13 131.09 36.07 131.49 C 35.47 130.15 34.86 128.81 34.26 127.47 C 35.34 115.40 38.44 103.58 43.19 92.44 Z" />
<path fill="#4683b9" d=" M 88.13 93.65 C 88.55 94.04 89.39 94.80 89.81 95.19 C 85.58 99.79 80.61 103.68 76.41 108.34 C 76.49 107.21 76.56 106.09 76.64 104.97 C 74.52 104.77 72.40 104.55 70.29 104.31 C 73.17 101.05 76.24 97.98 79.36 94.96 C 82.30 94.66 85.22 94.20 88.13 93.65 Z" />
<path fill="#6ac1ff" d=" M 42.44 99.47 C 43.15 99.48 44.58 99.49 45.30 99.50 C 45.50 101.29 45.55 103.10 45.47 104.90 C 46.23 105.04 47.75 105.32 48.50 105.47 C 47.22 108.12 45.57 110.57 43.58 112.74 C 44.13 112.94 45.23 113.33 45.77 113.53 C 44.34 116.66 42.49 119.57 40.54 122.39 C 40.76 123.62 41.00 124.84 41.23 126.07 L 40.89 126.38 C 40.27 126.99 39.65 127.60 39.03 128.20 C 38.34 128.62 36.97 129.46 36.28 129.87 C 36.93 122.36 38.95 115.08 40.66 107.76 C 41.37 105.02 41.33 102.10 42.44 99.47 Z" />
<path fill="#589ddc" d=" M 62.28 102.37 C 63.25 101.60 64.09 100.67 64.95 99.78 C 66.19 99.67 67.43 99.56 68.67 99.46 C 66.69 101.92 64.26 103.93 61.88 105.98 C 59.93 107.73 60.03 110.59 59.62 112.98 C 63.88 111.04 66.58 107.03 70.29 104.31 C 72.40 104.55 74.52 104.77 76.64 104.97 C 76.56 106.09 76.49 107.21 76.41 108.34 C 74.53 110.26 72.76 112.28 70.84 114.17 C 68.21 116.81 64.98 119.24 63.63 122.83 C 66.05 129.99 69.26 136.88 72.11 143.89 C 75.05 152.25 81.73 158.43 87.25 165.11 C 90.84 162.50 93.19 158.01 97.86 157.15 C 97.34 159.53 96.72 161.92 95.58 164.08 C 92.61 166.92 90.25 170.82 86.09 172.01 C 83.40 172.99 80.64 173.78 78.03 174.97 C 78.37 174.49 79.05 173.53 79.39 173.06 C 80.40 170.89 83.19 168.29 81.23 165.90 C 76.47 160.32 71.30 155.05 66.98 149.10 C 62.84 142.70 59.92 135.61 56.19 129.00 C 53.12 131.44 50.29 134.18 47.79 137.20 C 45.05 137.19 42.25 137.09 39.70 136.01 C 39.60 133.39 39.42 130.79 39.03 128.20 C 39.65 127.60 40.27 126.99 40.89 126.38 C 42.30 127.55 43.71 128.72 45.12 129.89 C 48.19 126.62 51.91 123.92 54.42 120.15 C 53.28 119.44 52.14 118.72 51.01 118.00 C 47.61 120.53 44.57 123.47 41.23 126.07 C 41.00 124.84 40.76 123.62 40.54 122.39 C 42.49 119.57 44.34 116.66 45.77 113.53 C 45.23 113.33 44.13 112.94 43.58 112.74 C 45.57 110.57 47.22 108.12 48.50 105.47 C 48.86 105.54 49.58 105.68 49.94 105.75 C 50.16 106.00 50.59 106.51 50.81 106.77 C 52.71 105.37 54.35 103.68 56.15 102.17 C 57.98 100.35 60.22 103.54 62.28 102.37 Z" />
<path fill="#b2ffff" d=" M 93.30 101.15 C 93.80 101.86 94.29 102.58 94.79 103.29 C 94.16 111.64 94.47 120.12 96.13 128.35 C 97.50 135.87 99.82 143.20 102.82 150.24 C 102.34 150.56 101.37 151.19 100.89 151.51 C 98.79 147.40 97.82 142.84 95.75 138.72 C 94.57 134.40 93.82 129.97 93.29 125.52 C 92.16 117.46 91.79 109.20 93.30 101.15 Z" />
<path fill="#68b7ff" d=" M 63.63 122.83 C 64.98 119.24 68.21 116.81 70.84 114.17 C 73.01 119.44 73.98 125.14 76.60 130.24 C 79.23 135.46 81.80 140.84 85.80 145.18 C 88.33 147.82 89.25 151.54 91.77 154.20 C 92.18 151.49 92.38 148.76 92.47 146.03 C 93.41 149.25 94.23 152.54 95.82 155.52 C 96.76 154.92 97.70 154.32 98.63 153.71 C 99.16 153.36 100.21 152.66 100.74 152.30 C 101.42 153.53 102.14 154.73 102.65 156.04 C 101.60 159.23 96.15 162.71 99.81 165.85 C 100.81 165.14 101.80 164.40 102.77 163.65 C 104.65 166.64 105.66 170.05 104.03 173.40 C 104.89 173.27 105.74 173.13 106.60 173.01 C 105.84 175.97 105.42 179.00 105.10 182.03 C 101.97 177.56 104.99 170.52 99.93 166.89 C 99.55 167.17 98.78 167.74 98.40 168.03 C 97.44 166.73 96.50 165.41 95.58 164.08 C 96.72 161.92 97.34 159.53 97.86 157.15 C 93.19 158.01 90.84 162.50 87.25 165.11 C 81.73 158.43 75.05 152.25 72.11 143.89 C 69.26 136.88 66.05 129.99 63.63 122.83 Z" />
<path fill="#4f8fc6" d=" M 41.23 126.07 C 44.57 123.47 47.61 120.53 51.01 118.00 C 52.14 118.72 53.28 119.44 54.42 120.15 C 51.91 123.92 48.19 126.62 45.12 129.89 C 43.71 128.72 42.30 127.55 40.89 126.38 L 41.23 126.07 Z" />
<path fill="#05223e" d=" M 96.13 128.35 C 96.82 127.90 98.19 127.01 98.88 126.56 C 100.12 135.29 103.18 143.62 106.70 151.65 L 106.82 152.93 C 106.10 152.84 104.64 152.65 103.92 152.56 C 103.53 151.79 103.16 151.02 102.82 150.24 C 99.82 143.20 97.50 135.87 96.13 128.35 Z" />
<path fill="#05213c" d=" M 30.94 128.82 C 32.02 128.54 33.10 128.27 34.18 127.99 C 33.19 136.18 33.53 144.49 34.09 152.71 C 33.34 152.71 31.84 152.70 31.09 152.70 C 30.22 144.77 30.34 136.77 30.94 128.82 Z" />
<path fill="#7dd8fa" d=" M 34.18 127.99 L 34.26 127.47 C 34.86 128.81 35.47 130.15 36.07 131.49 C 35.02 137.85 35.47 144.21 36.08 150.57 C 35.57 153.14 35.02 155.71 34.81 158.33 C 34.48 156.47 34.25 154.59 34.09 152.71 C 33.53 144.49 33.19 136.18 34.18 127.99 Z" />
<path fill="#68b2ff" d=" M 36.28 129.87 C 36.97 129.46 38.34 128.62 39.03 128.20 C 39.42 130.79 39.60 133.39 39.70 136.01 C 39.23 135.82 38.28 135.46 37.81 135.28 C 36.99 137.67 35.89 140.26 37.23 142.70 C 39.57 147.99 39.51 154.69 44.48 158.47 C 51.33 164.04 58.60 169.08 65.69 174.34 C 68.69 176.52 72.54 176.47 76.06 177.04 C 73.64 179.90 69.61 178.48 66.74 177.20 C 56.24 172.54 45.85 167.01 37.43 159.10 C 36.56 156.34 36.19 153.45 36.08 150.57 C 35.47 144.21 35.02 137.85 36.07 131.49 C 36.13 131.09 36.23 130.28 36.28 129.87 Z" />
<path fill="#4c83c3" d=" M 47.79 137.20 C 50.29 134.18 53.12 131.44 56.19 129.00 C 59.92 135.61 62.84 142.70 66.98 149.10 C 71.30 155.05 76.47 160.32 81.23 165.90 C 83.19 168.29 80.40 170.89 79.39 173.06 C 78.97 169.79 75.91 168.27 73.66 166.36 C 67.61 161.47 62.15 155.91 56.66 150.41 C 52.85 146.63 50.58 141.71 47.79 137.20 Z" />
<path fill="#5795dc" d=" M 37.81 135.28 C 38.28 135.46 39.23 135.82 39.70 136.01 C 42.25 137.09 45.05 137.19 47.79 137.20 C 50.58 141.71 52.85 146.63 56.66 150.41 C 62.15 155.91 67.61 161.47 73.66 166.36 C 75.91 168.27 78.97 169.79 79.39 173.06 C 79.05 173.53 78.37 174.49 78.03 174.97 C 77.69 175.33 77.02 176.07 76.68 176.43 C 76.52 176.58 76.21 176.89 76.06 177.04 C 72.54 176.47 68.69 176.52 65.69 174.34 C 58.60 169.08 51.33 164.04 44.48 158.47 C 39.51 154.69 39.57 147.99 37.23 142.70 C 35.89 140.26 36.99 137.67 37.81 135.28 Z" />
<path fill="#90f6ff" d=" M 95.75 138.72 C 97.82 142.84 98.79 147.40 100.89 151.51 C 101.37 151.19 102.34 150.56 102.82 150.24 C 103.16 151.02 103.53 151.79 103.92 152.56 C 104.18 153.09 104.43 153.63 104.69 154.17 C 102.95 156.37 104.33 158.97 104.98 161.28 C 104.23 162.05 103.52 162.87 102.77 163.65 C 101.80 164.40 100.81 165.14 99.81 165.85 C 96.15 162.71 101.60 159.23 102.65 156.04 C 102.14 154.73 101.42 153.53 100.74 152.30 C 100.21 152.66 99.16 153.36 98.63 153.71 C 95.31 149.58 96.68 143.65 95.75 138.72 Z" />
<path fill="#051f36" d=" M 280.65 143.68 C 282.06 142.20 284.84 143.04 285.05 145.10 C 286.17 147.50 285.53 150.16 285.41 152.68 C 284.64 152.68 283.11 152.69 282.34 152.70 C 282.51 150.38 282.65 148.05 282.83 145.73 C 281.82 148.12 280.76 150.49 279.68 152.86 C 278.91 152.77 277.38 152.60 276.61 152.51 C 277.89 149.54 279.08 146.51 280.65 143.68 Z" />
<path fill="#5cafff" d=" M 279.68 152.86 C 280.76 150.49 281.82 148.12 282.83 145.73 C 282.65 148.05 282.51 150.38 282.34 152.70 C 282.16 154.91 281.78 157.09 281.32 159.26 C 281.24 157.70 281.13 156.14 281.01 154.59 C 279.92 155.39 278.82 156.19 277.76 157.03 C 278.43 155.65 279.05 154.25 279.68 152.86 Z" />
<path fill="#b0ffff" d=" M 34.81 158.33 C 35.02 155.71 35.57 153.14 36.08 150.57 C 36.19 153.45 36.56 156.34 37.43 159.10 C 38.90 165.16 39.64 171.38 40.98 177.47 C 40.89 177.76 40.71 178.35 40.62 178.64 C 40.29 178.45 39.64 178.06 39.32 177.86 C 38.95 176.53 38.59 175.19 38.23 173.86 C 36.68 168.78 35.75 163.55 34.81 158.33 Z" />
<path fill="#697489" d=" M 106.70 151.65 L 106.65 151.01 C 110.01 159.40 115.59 166.55 121.18 173.53 C 120.80 174.24 120.03 175.64 119.65 176.35 C 114.81 171.20 110.81 165.31 107.28 159.20 C 106.42 157.53 105.56 155.84 104.69 154.17 C 104.43 153.63 104.18 153.09 103.92 152.56 C 104.64 152.65 106.10 152.84 106.82 152.93 L 106.70 151.65 Z" />
<path fill="#6f7a8d" d=" M 269.39 164.70 C 272.06 160.80 274.44 156.70 276.61 152.51 C 277.38 152.60 278.91 152.77 279.68 152.86 C 279.05 154.25 278.43 155.65 277.76 157.03 C 275.75 160.52 273.81 164.06 271.32 167.23 C 270.84 166.60 269.87 165.33 269.39 164.70 Z" />
<path fill="#697486" d=" M 31.09 152.70 C 31.84 152.70 33.34 152.71 34.09 152.71 C 34.25 154.59 34.48 156.47 34.81 158.33 C 35.75 163.55 36.68 168.78 38.23 173.86 C 37.47 174.80 36.72 175.74 35.96 176.68 C 33.26 168.96 32.09 160.79 31.09 152.70 Z" />
<path fill="#697486" d=" M 281.32 159.26 C 281.78 157.09 282.16 154.91 282.34 152.70 C 283.11 152.69 284.64 152.68 285.41 152.68 C 284.47 161.01 282.79 169.23 280.61 177.32 L 280.21 177.37 C 279.42 177.48 277.83 177.70 277.04 177.81 C 277.36 176.62 277.68 175.45 277.99 174.26 C 279.51 169.36 280.25 164.27 281.32 159.26 Z" />
<path fill="#cafdfd" d=" M 104.98 161.28 C 104.33 158.97 102.95 156.37 104.69 154.17 C 105.56 155.84 106.42 157.53 107.28 159.20 C 106.92 159.52 106.21 160.16 105.85 160.49 L 104.98 161.28 Z" />
<path fill="#7dd5ff" d=" M 277.76 157.03 C 278.82 156.19 279.92 155.39 281.01 154.59 C 281.13 156.14 281.24 157.70 281.32 159.26 C 280.25 164.27 279.51 169.36 277.99 174.26 C 277.69 173.06 277.39 171.87 277.10 170.67 L 277.31 169.77 C 278.07 167.09 278.62 164.36 278.76 161.58 C 272.77 168.20 267.85 175.75 261.33 181.90 C 257.82 184.11 255.25 187.44 251.90 189.83 C 251.92 189.30 251.97 188.22 251.99 187.69 C 255.38 184.56 259.03 181.69 262.21 178.34 C 265.58 174.92 268.56 171.16 271.32 167.23 C 273.81 164.06 275.75 160.52 277.76 157.03 Z" />
<path fill="#77c6ff" d=" M 37.43 159.10 C 45.85 167.01 56.24 172.54 66.74 177.20 C 69.61 178.48 73.64 179.90 76.06 177.04 C 76.21 176.89 76.52 176.58 76.68 176.43 C 78.93 176.69 81.08 175.98 83.24 175.48 C 85.30 175.64 87.13 176.85 89.12 177.33 C 92.66 175.67 94.86 171.85 98.85 170.85 C 100.08 172.32 100.89 174.06 101.63 175.80 C 100.96 176.94 100.30 178.08 99.64 179.23 C 100.03 180.20 100.42 181.17 100.81 182.15 C 99.03 184.97 97.14 187.75 95.93 190.87 C 96.68 191.95 97.42 193.03 98.17 194.12 C 101.33 193.09 106.19 190.47 108.74 193.78 L 107.99 193.92 L 106.66 194.26 C 103.11 195.18 99.67 196.44 96.19 197.57 C 95.85 197.14 95.19 196.27 94.85 195.84 C 93.92 195.68 92.99 195.53 92.06 195.38 C 90.09 197.35 87.60 198.63 84.85 199.06 C 86.78 195.17 88.20 191.01 90.77 187.44 C 89.87 186.84 88.97 186.23 88.07 185.63 C 88.96 185.08 89.86 184.54 90.76 184.00 C 90.78 183.52 90.82 182.58 90.83 182.11 C 86.68 180.21 82.34 183.09 78.20 181.78 C 76.01 183.29 74.18 185.27 71.90 186.64 C 68.85 186.26 65.82 185.91 62.77 186.48 C 57.00 183.46 52.49 178.51 46.89 175.20 C 45.66 174.45 44.17 174.45 42.79 174.25 C 42.47 174.81 41.82 175.95 41.50 176.52 L 40.98 177.47 C 39.64 171.38 38.90 165.16 37.43 159.10 Z" />
<path fill="#a8ffff" d=" M 105.85 160.49 C 106.21 160.16 106.92 159.52 107.28 159.20 C 110.81 165.31 114.81 171.20 119.65 176.35 C 122.03 178.62 124.31 180.99 126.70 183.26 C 122.49 184.95 120.86 179.82 118.38 177.58 C 115.15 174.79 112.99 171.09 110.35 167.78 C 108.96 169.16 107.58 170.54 106.18 171.91 C 106.67 169.65 107.39 167.44 107.73 165.15 C 107.27 163.53 106.47 162.04 105.85 160.49 Z" />
<path fill="#82d7ff" d=" M 104.98 161.28 L 105.85 160.49 C 106.47 162.04 107.27 163.53 107.73 165.15 C 107.39 167.44 106.67 169.65 106.18 171.91 C 107.58 170.54 108.96 169.16 110.35 167.78 C 112.99 171.09 115.15 174.79 118.38 177.58 C 120.86 179.82 122.49 184.95 126.70 183.26 C 128.92 185.14 131.14 187.02 133.40 188.86 L 131.66 189.03 C 129.25 188.29 127.32 186.65 125.48 185.01 C 123.41 185.99 121.66 187.48 120.55 189.50 C 121.85 189.22 123.15 188.93 124.45 188.61 C 125.60 189.59 127.12 190.37 127.64 191.90 C 126.61 195.22 124.11 197.88 120.84 199.07 C 117.83 196.43 118.76 191.53 115.17 189.40 C 113.98 190.05 112.79 190.71 111.60 191.35 C 110.93 189.37 110.24 187.40 109.55 185.44 C 110.13 184.19 110.71 182.93 111.29 181.68 C 109.93 182.40 108.58 183.14 107.25 183.90 C 106.53 183.28 105.79 182.68 105.10 182.03 C 105.42 179.00 105.84 175.97 106.60 173.01 C 105.74 173.13 104.89 173.27 104.03 173.40 C 105.66 170.05 104.65 166.64 102.77 163.65 C 103.52 162.87 104.23 162.05 104.98 161.28 Z" />
<path fill="#5187bd" d=" M 261.33 181.90 C 267.85 175.75 272.77 168.20 278.76 161.58 C 278.62 164.36 278.07 167.09 277.31 169.77 C 272.80 174.62 268.28 180.74 261.33 181.90 Z" />
<path fill="#68aff6" d=" M 86.09 172.01 C 90.25 170.82 92.61 166.92 95.58 164.08 C 96.50 165.41 97.44 166.73 98.40 168.03 C 97.99 168.55 97.59 169.08 97.20 169.62 C 97.61 169.93 98.44 170.54 98.85 170.85 C 94.86 171.85 92.66 175.67 89.12 177.33 C 87.13 176.85 85.30 175.64 83.24 175.48 C 81.08 175.98 78.93 176.69 76.68 176.43 C 77.02 176.07 77.69 175.33 78.03 174.97 C 80.64 173.78 83.40 172.99 86.09 172.01 Z" />
<path fill="#5b6576" d=" M 260.91 175.20 C 264.01 171.93 266.75 168.35 269.39 164.70 C 269.87 165.33 270.84 166.60 271.32 167.23 C 268.56 171.16 265.58 174.92 262.21 178.34 C 261.89 177.56 261.23 175.99 260.91 175.20 Z" />
<path fill="#64a4d9" d=" M 98.40 168.03 C 98.78 167.74 99.55 167.17 99.93 166.89 C 104.99 170.52 101.97 177.56 105.10 182.03 C 105.79 182.68 106.53 183.28 107.25 183.90 C 109.27 188.44 110.74 193.28 113.66 197.35 C 110.86 198.65 109.98 195.53 108.74 193.78 C 106.19 190.47 101.33 193.09 98.17 194.12 C 97.42 193.03 96.68 191.95 95.93 190.87 C 97.14 187.75 99.03 184.97 100.81 182.15 C 100.42 181.17 100.03 180.20 99.64 179.23 C 100.30 178.08 100.96 176.94 101.63 175.80 C 100.89 174.06 100.08 172.32 98.85 170.85 C 98.44 170.54 97.61 169.93 97.20 169.62 C 97.59 169.08 97.99 168.55 98.40 168.03 Z" />
<path fill="#65a4e5" d=" M 261.33 181.90 C 268.28 180.74 272.80 174.62 277.31 169.77 L 277.10 170.67 C 274.68 179.63 270.76 188.09 266.83 196.47 C 266.09 197.95 265.28 199.39 264.44 200.80 C 261.00 203.23 258.68 206.82 255.49 209.52 C 251.91 212.59 248.25 215.58 244.28 218.13 C 238.82 221.43 234.75 226.82 228.51 228.83 C 220.97 230.91 213.67 234.06 205.85 234.95 C 209.47 231.84 214.44 231.49 218.50 229.23 C 221.38 227.31 223.90 224.89 226.79 222.98 C 222.91 223.86 218.70 227.86 214.88 225.03 C 218.11 219.73 224.36 217.07 227.35 211.58 C 223.41 211.46 221.03 214.66 218.52 217.15 C 215.90 215.35 213.09 218.24 210.30 218.13 C 207.25 218.00 204.78 219.85 202.09 220.94 C 199.37 220.84 196.63 220.61 194.01 221.54 C 192.61 221.15 191.19 220.62 189.73 220.92 C 186.10 221.46 182.63 219.84 179.06 219.58 C 177.60 220.14 176.49 221.28 175.27 222.20 C 175.77 220.92 176.27 219.64 176.76 218.35 C 175.70 217.67 174.65 217.00 173.57 216.36 C 174.70 214.24 176.08 212.26 177.54 210.36 C 176.31 209.93 175.08 209.50 173.84 209.10 C 177.86 209.38 181.80 210.23 185.81 210.62 C 185.52 211.80 185.24 212.99 184.96 214.17 C 188.01 214.50 190.87 213.48 193.23 211.57 C 191.03 211.24 188.83 210.92 186.62 210.68 C 193.70 209.49 201.08 211.58 207.98 209.21 C 212.45 207.97 217.11 207.51 221.54 206.11 C 232.22 201.86 243.09 197.45 251.90 189.83 C 255.25 187.44 257.82 184.11 261.33 181.90 Z" />
<path fill="#92ebff" d=" M 277.10 170.67 C 277.39 171.87 277.69 173.06 277.99 174.26 C 277.68 175.45 277.36 176.62 277.04 177.81 C 275.54 183.33 273.18 188.56 270.86 193.78 C 270.03 195.61 269.15 197.42 268.18 199.18 C 267.84 198.50 267.16 197.15 266.83 196.47 C 270.76 188.09 274.68 179.63 277.10 170.67 Z" />
<path fill="#424b59" d=" M 38.23 173.86 C 38.59 175.19 38.95 176.53 39.32 177.86 C 39.97 180.09 40.56 182.37 41.70 184.41 C 43.63 186.49 46.15 187.91 48.32 189.72 C 47.13 190.09 45.95 190.47 44.76 190.84 C 42.96 189.44 40.85 188.39 39.32 186.70 C 37.60 183.59 36.97 180.05 35.96 176.68 C 36.72 175.74 37.47 174.80 38.23 173.86 Z" />
<path fill="#64a3db" d=" M 42.79 174.25 C 44.17 174.45 45.66 174.45 46.89 175.20 C 52.49 178.51 57.00 183.46 62.77 186.48 C 65.82 185.91 68.85 186.26 71.90 186.64 C 74.18 185.27 76.01 183.29 78.20 181.78 C 82.34 183.09 86.68 180.21 90.83 182.11 C 90.82 182.58 90.78 183.52 90.76 184.00 C 89.86 184.54 88.96 185.08 88.07 185.63 C 88.97 186.23 89.87 186.84 90.77 187.44 C 88.20 191.01 86.78 195.17 84.85 199.06 C 79.73 199.39 75.54 203.98 70.26 202.70 C 65.56 200.28 61.75 196.51 57.42 193.53 C 53.08 190.22 48.50 187.20 44.46 183.51 C 42.45 181.74 42.31 178.89 41.50 176.52 C 41.82 175.95 42.47 174.81 42.79 174.25 Z" />
<path fill="#303946" d=" M 119.65 176.35 C 120.03 175.64 120.80 174.24 121.18 173.53 C 127.85 181.00 135.76 187.21 144.29 192.42 C 143.97 193.09 143.33 194.43 143.00 195.11 C 139.60 193.34 136.59 190.96 133.40 188.86 C 131.14 187.02 128.92 185.14 126.70 183.26 C 124.31 180.99 122.03 178.62 119.65 176.35 Z" />
<path fill="#424b59" d=" M 242.77 190.25 C 249.41 186.02 255.58 181.00 260.91 175.20 C 261.23 175.99 261.89 177.56 262.21 178.34 C 259.03 181.69 255.38 184.56 251.99 187.69 C 249.85 189.25 247.71 190.81 245.48 192.25 C 244.87 191.79 243.64 190.89 243.03 190.43 L 242.77 190.25 Z" />
<path fill="#82d7ff" d=" M 40.98 177.47 L 41.50 176.52 C 42.31 178.89 42.45 181.74 44.46 183.51 C 48.50 187.20 53.08 190.22 57.42 193.53 C 61.75 196.51 65.56 200.28 70.26 202.70 C 75.54 203.98 79.73 199.39 84.85 199.06 C 84.39 199.95 83.97 200.85 83.57 201.77 C 79.61 203.13 75.68 204.60 71.65 205.74 C 70.15 206.31 68.90 204.97 67.75 204.26 C 61.32 199.34 54.72 194.67 48.32 189.72 C 46.15 187.91 43.63 186.49 41.70 184.41 C 40.56 182.37 39.97 180.09 39.32 177.86 C 39.64 178.06 40.29 178.45 40.62 178.64 C 40.71 178.35 40.89 177.76 40.98 177.47 Z" />
<path fill="#3a4451" d=" M 277.04 177.81 C 277.83 177.70 279.42 177.48 280.21 177.37 C 278.67 183.42 276.31 189.26 273.71 194.93 L 273.57 194.87 C 272.89 194.60 271.54 194.05 270.86 193.78 C 273.18 188.56 275.54 183.33 277.04 177.81 Z" />
<path fill="#76c1ff" d=" M 107.25 183.90 C 108.58 183.14 109.93 182.40 111.29 181.68 C 110.71 182.93 110.13 184.19 109.55 185.44 C 110.24 187.40 110.93 189.37 111.60 191.35 C 112.79 190.71 113.98 190.05 115.17 189.40 C 118.76 191.53 117.83 196.43 120.84 199.07 C 124.11 197.88 126.61 195.22 127.64 191.90 C 127.12 190.37 125.60 189.59 124.45 188.61 C 123.15 188.93 121.85 189.22 120.55 189.50 C 121.66 187.48 123.41 185.99 125.48 185.01 C 127.32 186.65 129.25 188.29 131.66 189.03 C 132.03 189.55 132.76 190.59 133.13 191.11 C 131.90 190.53 130.65 189.99 129.40 189.47 C 129.39 190.63 129.25 191.89 130.11 192.83 C 133.95 198.48 139.87 202.15 144.68 206.86 C 144.04 207.99 143.40 209.12 142.77 210.26 C 137.55 209.33 132.77 207.01 127.88 205.09 C 133.11 210.96 139.85 215.38 146.66 219.21 C 153.36 223.01 161.40 222.87 168.19 226.34 C 169.80 225.73 171.41 225.11 173.01 224.50 C 172.37 222.64 171.70 220.80 170.98 218.98 C 169.51 220.27 168.02 221.55 166.53 222.81 C 164.11 219.01 159.53 218.05 155.71 216.28 C 153.14 215.22 150.93 213.53 148.75 211.84 C 150.24 211.91 151.73 211.98 153.22 212.07 C 158.85 213.54 164.77 213.82 170.22 215.94 C 171.28 216.40 172.43 216.53 173.57 216.36 C 174.65 217.00 175.70 217.67 176.76 218.35 C 176.27 219.64 175.77 220.92 175.27 222.20 C 176.49 221.28 177.60 220.14 179.06 219.58 C 182.63 219.84 186.10 221.46 189.73 220.92 C 191.19 220.62 192.61 221.15 194.01 221.54 C 196.63 220.61 199.37 220.84 202.09 220.94 C 204.78 219.85 207.25 218.00 210.30 218.13 C 213.09 218.24 215.90 215.35 218.52 217.15 C 221.03 214.66 223.41 211.46 227.35 211.58 C 224.36 217.07 218.11 219.73 214.88 225.03 C 210.18 228.00 204.59 229.16 199.14 229.77 C 196.86 230.61 194.91 232.62 192.30 232.29 C 189.10 232.16 185.88 232.40 182.83 233.47 C 182.78 233.16 182.68 232.53 182.63 232.22 C 177.60 232.67 172.30 233.14 167.51 231.22 C 167.45 230.65 167.32 229.52 167.26 228.96 C 166.33 229.85 165.40 230.75 164.44 231.61 C 163.23 230.39 162.10 228.87 160.30 228.56 C 153.43 227.01 146.59 225.02 140.37 221.62 C 133.52 216.95 126.82 211.98 121.12 205.91 C 118.61 203.08 116.30 200.07 113.66 197.35 C 110.74 193.28 109.27 188.44 107.25 183.90 Z" />
<path fill="#8ee6ff" d=" M 245.48 192.25 C 247.71 190.81 249.85 189.25 251.99 187.69 C 251.97 188.22 251.92 189.30 251.90 189.83 C 243.09 197.45 232.22 201.86 221.54 206.11 C 217.11 207.51 212.45 207.97 207.98 209.21 C 201.08 211.58 193.70 209.49 186.62 210.68 L 185.81 210.62 C 181.80 210.23 177.86 209.38 173.84 209.10 L 173.33 209.01 C 167.14 206.95 160.65 205.86 154.66 203.19 C 146.94 200.21 139.74 196.07 133.13 191.11 C 132.76 190.59 132.03 189.55 131.66 189.03 L 133.40 188.86 C 136.59 190.96 139.60 193.34 143.00 195.11 C 162.47 206.33 185.85 210.83 208.02 206.89 C 221.38 204.75 234.08 199.45 245.48 192.25 Z" />
<path fill="#17202a" d=" M 44.76 190.84 C 45.95 190.47 47.13 190.09 48.32 189.72 C 54.72 194.67 61.32 199.34 67.75 204.26 C 68.90 204.97 70.15 206.31 71.65 205.74 C 75.68 204.60 79.61 203.13 83.57 201.77 C 87.81 200.46 92.00 199.01 96.19 197.57 C 99.67 196.44 103.11 195.18 106.66 194.26 C 105.59 197.22 104.75 200.26 103.64 203.22 C 102.96 202.91 101.60 202.29 100.91 201.98 C 101.27 200.89 101.64 199.81 102.00 198.73 C 92.04 202.14 82.08 205.61 72.08 208.91 C 70.38 209.75 68.73 208.73 67.36 207.77 C 59.79 202.17 52.36 196.40 44.76 190.84 Z" />
<path fill="#69abea" d=" M 130.11 192.83 C 129.25 191.89 129.39 190.63 129.40 189.47 C 130.65 189.99 131.90 190.53 133.13 191.11 C 139.74 196.07 146.94 200.21 154.66 203.19 C 160.65 205.86 167.14 206.95 173.33 209.01 C 168.55 208.85 163.77 208.57 159.02 207.99 C 150.96 206.42 145.32 199.85 137.95 196.82 C 142.21 202.77 149.95 205.24 153.22 212.07 C 151.73 211.98 150.24 211.91 148.75 211.84 C 146.77 211.26 144.78 210.72 142.77 210.26 C 143.40 209.12 144.04 207.99 144.68 206.86 C 139.87 202.15 133.95 198.48 130.11 192.83 Z" />
<path fill="#0d161f" d=" M 229.53 197.37 C 234.32 195.66 238.54 192.76 243.03 190.43 C 243.64 190.89 244.87 191.79 245.48 192.25 C 234.08 199.45 221.38 204.75 208.02 206.89 C 185.85 210.83 162.47 206.33 143.00 195.11 C 143.33 194.43 143.97 193.09 144.29 192.42 C 169.78 207.44 202.50 209.43 229.53 197.37 Z" />
<path fill="#87d9ff" d=" M 106.66 194.26 L 107.99 193.92 C 107.83 200.81 104.71 207.11 102.71 213.59 C 102.56 214.01 102.27 214.83 102.13 215.25 C 101.82 213.67 101.46 212.11 101.18 210.53 C 101.93 208.07 102.77 205.64 103.64 203.22 C 104.75 200.26 105.59 197.22 106.66 194.26 Z" />
<path fill="#64a2e2" d=" M 107.99 193.92 L 108.74 193.78 C 109.98 195.53 110.86 198.65 113.66 197.35 C 116.30 200.07 118.61 203.08 121.12 205.91 C 126.82 211.98 133.52 216.95 140.37 221.62 C 139.08 221.45 137.79 221.33 136.50 221.20 C 136.90 222.20 137.29 223.21 137.69 224.23 C 131.48 223.04 125.64 219.20 119.11 220.35 C 117.41 221.09 116.43 222.86 115.13 224.13 C 113.94 223.24 112.75 222.35 111.56 221.47 C 111.26 222.33 110.97 223.20 110.67 224.07 C 110.16 223.30 109.63 222.55 109.10 221.81 C 107.15 218.93 105.00 216.20 102.71 213.59 C 104.71 207.11 107.83 200.81 107.99 193.92 Z" />
<path fill="#161d23" d=" M 270.86 193.78 C 271.54 194.05 272.89 194.60 273.57 194.87 C 262.66 218.56 244.06 238.56 221.32 251.31 C 193.83 266.87 160.37 272.16 129.59 264.63 L 130.31 264.39 C 132.05 263.83 133.77 263.20 135.52 262.67 C 140.50 263.40 145.48 264.04 150.50 264.45 C 156.01 265.48 161.64 264.99 167.19 264.53 C 176.39 263.78 185.60 262.34 194.38 259.43 C 204.94 256.21 215.11 251.72 224.49 245.90 C 228.58 243.32 232.70 240.70 236.27 237.41 C 249.36 227.00 260.20 213.87 268.18 199.18 C 269.15 197.42 270.03 195.61 270.86 193.78 Z" />
<path fill="#99edfb" d=" M 84.85 199.06 C 87.60 198.63 90.09 197.35 92.06 195.38 C 92.99 195.53 93.92 195.68 94.85 195.84 C 95.19 196.27 95.85 197.14 96.19 197.57 C 92.00 199.01 87.81 200.46 83.57 201.77 C 83.97 200.85 84.39 199.95 84.85 199.06 Z" />
<path fill="#5c96d1" d=" M 137.95 196.82 C 145.32 199.85 150.96 206.42 159.02 207.99 C 163.77 208.57 168.55 208.85 173.33 209.01 L 173.84 209.10 C 175.08 209.50 176.31 209.93 177.54 210.36 C 176.08 212.26 174.70 214.24 173.57 216.36 C 172.43 216.53 171.28 216.40 170.22 215.94 C 164.77 213.82 158.85 213.54 153.22 212.07 C 149.95 205.24 142.21 202.77 137.95 196.82 Z" />
<path fill="#b2ffff" d=" M 266.83 196.47 C 267.16 197.15 267.84 198.50 268.18 199.18 C 260.20 213.87 249.36 227.00 236.27 237.41 L 234.19 237.93 C 234.76 237.28 235.91 235.98 236.48 235.34 C 239.80 232.37 242.95 229.19 245.64 225.62 C 251.93 217.38 259.92 210.27 264.44 200.80 C 265.28 199.39 266.09 197.95 266.83 196.47 Z" />
<path fill="#091219" d=" M 38.57 198.50 C 39.82 197.75 41.37 198.24 42.74 198.14 C 50.04 203.72 57.53 209.05 64.80 214.67 C 73.55 211.79 82.24 208.73 90.99 205.88 C 93.48 205.13 96.06 207.54 94.84 210.06 C 91.86 218.66 88.97 227.29 86.01 235.89 C 91.62 243.05 96.80 250.54 102.33 257.76 C 103.91 259.59 102.95 263.46 100.07 263.00 C 90.82 262.93 81.57 262.75 72.32 262.61 C 70.33 265.58 68.10 268.38 66.17 271.40 C 65.51 270.97 64.19 270.12 63.53 269.69 C 63.97 269.09 64.41 268.49 64.84 267.90 C 66.12 266.18 67.34 264.42 68.55 262.66 C 69.32 261.60 70.10 260.54 70.88 259.49 C 80.64 259.75 90.39 259.66 100.15 259.84 C 96.98 255.63 93.82 251.42 90.63 247.23 C 88.11 243.47 84.84 240.10 82.82 236.08 C 84.30 230.99 86.31 226.06 87.89 220.99 C 89.28 216.83 90.77 212.71 92.18 208.56 C 82.89 211.73 73.66 215.05 64.30 218.03 C 56.34 212.24 48.50 206.27 40.67 200.32 C 40.77 204.44 40.81 208.57 40.91 212.70 C 40.87 217.18 41.03 221.67 41.03 226.15 C 41.03 227.38 41.02 228.61 41.02 229.84 C 38.48 231.71 35.91 233.56 33.33 235.37 C 27.80 239.06 22.55 243.14 17.13 246.98 C 19.32 247.24 21.44 247.85 23.52 248.58 C 28.36 250.24 33.25 251.78 38.19 253.17 C 40.59 253.85 42.93 254.72 45.25 255.67 C 46.52 259.64 48.05 263.54 49.09 267.58 C 49.17 267.92 49.33 268.58 49.41 268.92 C 48.58 269.75 47.75 270.58 46.93 271.43 C 45.65 266.88 44.11 262.43 42.78 257.90 C 33.92 255.11 25.05 252.35 16.18 249.61 C 15.08 248.89 14.38 247.34 14.46 246.04 C 14.97 244.20 16.80 243.30 18.17 242.18 C 24.85 237.61 31.40 232.86 38.03 228.22 C 37.90 219.78 37.82 211.35 37.72 202.91 C 37.69 201.40 37.77 199.83 38.57 198.50 Z" />
<path fill="#8ee6ff" d=" M 40.67 200.32 C 48.50 206.27 56.34 212.24 64.30 218.03 C 73.66 215.05 82.89 211.73 92.18 208.56 C 90.77 212.71 89.28 216.83 87.89 220.99 C 87.38 221.28 86.37 221.87 85.86 222.16 C 85.90 221.39 85.97 219.85 86.01 219.08 C 87.26 217.11 88.26 214.77 86.05 213.05 C 82.83 214.58 79.32 215.19 75.91 216.11 C 72.54 217.86 68.92 219.04 65.21 219.83 C 56.96 217.02 51.41 209.60 43.71 205.75 C 43.32 207.65 42.97 209.56 42.51 211.45 C 42.11 211.76 41.31 212.39 40.91 212.70 C 40.81 208.57 40.77 204.44 40.67 200.32 Z" />
<path fill="#7cd1ff" d=" M 255.49 209.52 C 258.68 206.82 261.00 203.23 264.44 200.80 C 259.92 210.27 251.93 217.38 245.64 225.62 C 242.95 229.19 239.80 232.37 236.48 235.34 C 236.47 234.25 236.48 233.17 236.48 232.08 C 232.76 232.53 229.07 233.21 225.42 234.05 C 226.63 232.42 227.66 230.67 228.51 228.83 C 234.75 226.82 238.82 221.43 244.28 218.13 C 248.25 215.58 251.91 212.59 255.49 209.52 Z" />
<path fill="#030b13" d=" M 100.91 201.98 C 101.60 202.29 102.96 202.91 103.64 203.22 C 102.77 205.64 101.93 208.07 101.18 210.53 C 99.79 214.63 98.29 218.70 96.98 222.82 C 96.13 225.30 95.27 227.77 94.42 230.25 C 95.28 231.38 96.15 232.50 97.00 233.65 C 97.98 235.04 99.01 236.41 100.02 237.78 C 101.08 239.23 102.12 240.69 103.21 242.11 C 105.38 245.08 107.64 247.99 109.84 250.94 C 111.96 253.43 113.47 257.04 116.95 257.84 C 123.01 259.91 129.22 261.55 135.52 262.67 C 133.77 263.20 132.05 263.83 130.31 264.39 C 124.23 264.03 118.32 261.51 112.61 259.41 C 105.83 251.15 99.77 242.27 93.19 233.83 C 92.11 232.52 91.06 230.77 91.76 229.04 C 94.65 219.97 97.86 210.99 100.91 201.98 Z" />
<path fill="#87d9ff" d=" M 127.88 205.09 C 132.77 207.01 137.55 209.33 142.77 210.26 C 144.78 210.72 146.77 211.26 148.75 211.84 C 150.93 213.53 153.14 215.22 155.71 216.28 C 159.53 218.05 164.11 219.01 166.53 222.81 C 168.02 221.55 169.51 220.27 170.98 218.98 C 171.70 220.80 172.37 222.64 173.01 224.50 C 171.41 225.11 169.80 225.73 168.19 226.34 C 161.40 222.87 153.36 223.01 146.66 219.21 C 139.85 215.38 133.11 210.96 127.88 205.09 Z" />
<path fill="#65a6e7" d=" M 43.71 205.75 C 51.41 209.60 56.96 217.02 65.21 219.83 C 64.14 220.92 63.28 222.32 61.85 222.97 C 59.61 223.37 58.39 221.17 56.97 219.89 C 56.16 220.67 55.35 221.45 54.54 222.24 C 50.72 220.77 48.90 216.34 44.52 215.86 C 44.00 214.33 43.35 212.84 42.51 211.45 C 42.97 209.56 43.32 207.65 43.71 205.75 Z" />
<path fill="#9fffff" d=" M 101.18 210.53 C 101.46 212.11 101.82 213.67 102.13 215.25 C 101.57 219.26 99.84 222.95 97.22 226.03 C 97.16 225.23 97.04 223.63 96.98 222.82 C 98.29 218.70 99.79 214.63 101.18 210.53 Z" />
<path fill="#578ec6" d=" M 184.96 214.17 C 185.24 212.99 185.52 211.80 185.81 210.62 L 186.62 210.68 C 188.83 210.92 191.03 211.24 193.23 211.57 C 190.87 213.48 188.01 214.50 184.96 214.17 Z" />
<path fill="#b9ffff" d=" M 40.91 212.70 C 41.31 212.39 42.11 211.76 42.51 211.45 C 42.58 216.51 44.31 221.59 42.97 226.61 C 42.49 226.50 41.52 226.27 41.03 226.15 C 41.03 221.67 40.87 217.18 40.91 212.70 Z" />
<path fill="#7acbff" d=" M 42.51 211.45 C 43.35 212.84 44.00 214.33 44.52 215.86 C 46.17 219.23 50.64 220.36 51.71 224.13 C 51.83 226.22 49.63 227.40 48.38 228.77 C 47.18 227.94 45.98 227.12 44.77 226.30 C 44.09 227.42 43.42 228.55 42.74 229.67 C 40.98 233.03 37.36 236.16 33.33 235.37 C 35.91 233.56 38.48 231.71 41.02 229.84 C 41.02 228.61 41.03 227.38 41.03 226.15 C 41.52 226.27 42.49 226.50 42.97 226.61 C 44.31 221.59 42.58 216.51 42.51 211.45 Z" />
<path fill="#5e9cdb" d=" M 75.91 216.11 C 79.32 215.19 82.83 214.58 86.05 213.05 C 88.26 214.77 87.26 217.11 86.01 219.08 C 83.86 223.29 82.88 227.96 81.41 232.42 C 80.97 232.00 80.10 231.15 79.66 230.73 C 79.85 230.25 80.04 229.79 80.24 229.32 C 79.23 228.86 78.23 228.40 77.23 227.95 C 78.08 226.53 78.93 225.12 79.76 223.69 C 76.52 225.69 74.14 228.83 70.71 230.55 C 70.65 229.83 70.53 228.40 70.47 227.68 C 69.96 227.87 68.93 228.25 68.41 228.44 C 68.46 229.69 68.72 230.90 69.15 232.08 C 68.20 232.19 67.25 232.31 66.29 232.43 C 64.25 231.45 62.00 231.21 59.77 231.38 C 60.36 230.15 62.12 229.05 61.42 227.52 C 58.97 225.96 56.76 224.10 54.54 222.24 C 55.35 221.45 56.16 220.67 56.97 219.89 C 58.39 221.17 59.61 223.37 61.85 222.97 C 63.28 222.32 64.14 220.92 65.21 219.83 C 68.92 219.04 72.54 217.86 75.91 216.11 Z" />
<path fill="#72c2ff" d=" M 102.71 213.59 C 105.00 216.20 107.15 218.93 109.10 221.81 C 110.79 226.62 111.18 233.92 105.44 236.11 C 103.88 232.11 105.39 226.29 101.05 223.94 C 100.35 224.42 99.67 224.91 98.99 225.41 C 98.28 227.52 98.19 229.75 97.85 231.93 C 97.63 232.36 97.21 233.22 97.00 233.65 C 96.15 232.50 95.28 231.38 94.42 230.25 C 95.27 227.77 96.13 225.30 96.98 222.82 C 97.04 223.63 97.16 225.23 97.22 226.03 C 99.84 222.95 101.57 219.26 102.13 215.25 C 102.27 214.83 102.56 214.01 102.71 213.59 Z" />
<path fill="#68b4ff" d=" M 44.52 215.86 C 48.90 216.34 50.72 220.77 54.54 222.24 C 56.76 224.10 58.97 225.96 61.42 227.52 C 62.12 229.05 60.36 230.15 59.77 231.38 C 62.00 231.21 64.25 231.45 66.29 232.43 C 64.56 234.03 62.77 235.56 60.96 237.08 C 59.19 236.39 58.28 234.97 58.33 233.09 C 56.45 233.69 54.59 234.86 52.57 234.69 C 49.89 232.91 47.72 230.48 44.92 228.88 C 44.37 229.08 43.28 229.48 42.74 229.67 C 43.42 228.55 44.09 227.42 44.77 226.30 C 45.98 227.12 47.18 227.94 48.38 228.77 C 49.63 227.40 51.83 226.22 51.71 224.13 C 50.64 220.36 46.17 219.23 44.52 215.86 Z" />
<path fill="#6ac1ff" d=" M 81.41 232.42 C 82.88 227.96 83.86 223.29 86.01 219.08 C 85.97 219.85 85.90 221.39 85.86 222.16 C 86.37 221.87 87.38 221.28 87.89 220.99 C 86.31 226.06 84.30 230.99 82.82 236.08 C 84.84 240.10 88.11 243.47 90.63 247.23 C 90.28 247.29 89.58 247.40 89.24 247.46 C 85.77 245.03 82.34 242.12 81.22 237.85 C 81.21 236.04 81.25 234.22 81.41 232.42 Z" />
<path fill="#5897d8" d=" M 115.13 224.13 C 116.43 222.86 117.41 221.09 119.11 220.35 C 125.64 219.20 131.48 223.04 137.69 224.23 C 137.29 223.21 136.90 222.20 136.50 221.20 C 137.79 221.33 139.08 221.45 140.37 221.62 C 146.59 225.02 153.43 227.01 160.30 228.56 C 162.10 228.87 163.23 230.39 164.44 231.61 C 163.44 232.48 162.42 233.34 161.41 234.19 C 158.18 232.53 154.83 230.57 151.08 230.68 C 147.71 230.87 144.42 231.79 141.04 231.81 C 136.05 231.86 131.19 230.41 126.20 230.48 C 126.45 232.34 128.64 232.45 130.04 233.04 C 133.59 233.99 137.14 234.95 140.51 236.43 C 139.90 236.64 138.68 237.05 138.07 237.26 C 130.93 235.77 123.80 234.13 116.93 231.63 C 113.82 230.09 112.22 226.99 110.67 224.07 C 110.97 223.20 111.26 222.33 111.56 221.47 C 112.75 222.35 113.94 223.24 115.13 224.13 Z" />
<path fill="#5cafff" d=" M 109.10 221.81 C 109.63 222.55 110.16 223.30 110.67 224.07 C 112.22 226.99 113.82 230.09 116.93 231.63 C 115.15 234.68 118.41 236.53 120.21 238.44 C 117.18 239.20 114.06 238.93 110.97 238.93 C 109.39 238.95 107.31 239.11 106.82 240.96 C 107.10 242.35 107.67 243.66 108.31 244.92 C 108.94 245.86 109.59 246.79 110.25 247.72 C 110.70 248.33 111.60 249.57 112.05 250.19 C 111.50 250.38 110.39 250.75 109.84 250.94 C 107.64 247.99 105.38 245.08 103.21 242.11 C 104.20 242.64 105.19 243.15 106.21 243.64 C 105.05 241.22 103.60 235.55 100.02 237.78 C 99.01 236.41 97.98 235.04 97.00 233.65 C 97.21 233.22 97.63 232.36 97.85 231.93 C 99.30 232.76 100.47 234.95 102.37 234.43 C 103.15 230.96 102.61 226.98 98.99 225.41 C 99.67 224.91 100.35 224.42 101.05 223.94 C 105.39 226.29 103.88 232.11 105.44 236.11 C 111.18 233.92 110.79 226.62 109.10 221.81 Z" />
<path fill="#4a8ac9" d=" M 214.88 225.03 C 218.70 227.86 222.91 223.86 226.79 222.98 C 223.90 224.89 221.38 227.31 218.50 229.23 C 214.44 231.49 209.47 231.84 205.85 234.95 C 204.26 234.89 202.61 234.21 201.07 234.88 C 197.55 236.14 193.72 236.38 190.39 238.18 C 190.38 237.67 190.35 236.65 190.34 236.14 C 189.30 236.32 188.27 236.51 187.23 236.65 C 181.10 235.57 174.88 237.98 168.74 236.55 C 165.24 235.52 162.29 238.53 158.87 238.52 C 152.72 238.14 146.36 238.84 140.51 236.43 C 137.14 234.95 133.59 233.99 130.04 233.04 C 128.64 232.45 126.45 232.34 126.20 230.48 C 131.19 230.41 136.05 231.86 141.04 231.81 C 144.42 231.79 147.71 230.87 151.08 230.68 C 154.83 230.57 158.18 232.53 161.41 234.19 C 162.42 233.34 163.44 232.48 164.44 231.61 C 165.40 230.75 166.33 229.85 167.26 228.96 C 167.32 229.52 167.45 230.65 167.51 231.22 C 172.30 233.14 177.60 232.67 182.63 232.22 C 182.68 232.53 182.78 233.16 182.83 233.47 C 185.88 232.40 189.10 232.16 192.30 232.29 C 194.91 232.62 196.86 230.61 199.14 229.77 C 204.59 229.16 210.18 228.00 214.88 225.03 Z" />
<path fill="#4685c3" d=" M 70.71 230.55 C 74.14 228.83 76.52 225.69 79.76 223.69 C 78.93 225.12 78.08 226.53 77.23 227.95 C 78.23 228.40 79.23 228.86 80.24 229.32 C 80.04 229.79 79.85 230.25 79.66 230.73 C 80.10 231.15 80.97 232.00 81.41 232.42 C 81.25 234.22 81.21 236.04 81.22 237.85 C 75.99 239.37 72.18 243.67 66.93 245.08 C 68.81 243.00 70.94 240.86 71.16 237.90 C 67.61 238.85 64.85 242.02 61.00 241.86 C 57.77 242.16 55.25 239.79 52.71 238.19 C 50.72 239.44 49.15 241.20 47.98 243.23 L 47.04 243.21 C 46.58 242.35 46.16 241.46 45.74 240.58 C 46.49 239.04 48.41 236.97 46.63 235.42 C 45.14 234.11 43.92 232.57 44.16 230.46 C 46.89 230.68 48.01 233.53 49.88 235.12 C 51.38 237.04 54.04 236.24 56.01 237.13 C 57.51 238.18 58.67 239.71 60.21 240.66 C 64.20 239.58 66.93 235.84 69.33 232.66 L 69.15 232.08 C 68.72 230.90 68.46 229.69 68.41 228.44 C 68.93 228.25 69.96 227.87 70.47 227.68 C 70.53 228.40 70.65 229.83 70.71 230.55 Z" />
<path fill="#5290cf" d=" M 98.99 225.41 C 102.61 226.98 103.15 230.96 102.37 234.43 C 100.47 234.95 99.30 232.76 97.85 231.93 C 98.19 229.75 98.28 227.52 98.99 225.41 Z" />
<path fill="#4d9ce6" d=" M 42.74 229.67 C 43.28 229.48 44.37 229.08 44.92 228.88 C 47.72 230.48 49.89 232.91 52.57 234.69 C 54.59 234.86 56.45 233.69 58.33 233.09 C 58.28 234.97 59.19 236.39 60.96 237.08 C 62.77 235.56 64.56 234.03 66.29 232.43 C 67.25 232.31 68.20 232.19 69.15 232.08 L 69.33 232.66 C 66.93 235.84 64.20 239.58 60.21 240.66 C 58.67 239.71 57.51 238.18 56.01 237.13 C 54.04 236.24 51.38 237.04 49.88 235.12 C 48.01 233.53 46.89 230.68 44.16 230.46 C 43.92 232.57 45.14 234.11 46.63 235.42 C 48.41 236.97 46.49 239.04 45.74 240.58 C 46.16 241.46 46.58 242.35 47.04 243.21 C 45.78 244.54 44.60 245.94 43.40 247.32 C 42.65 247.33 41.90 247.34 41.16 247.38 C 41.84 243.32 40.03 239.46 38.02 236.05 C 32.39 238.78 26.83 241.84 22.03 245.90 C 22.72 246.32 24.10 247.16 24.79 247.58 C 24.47 247.83 23.83 248.33 23.52 248.58 C 21.44 247.85 19.32 247.24 17.13 246.98 C 22.55 243.14 27.80 239.06 33.33 235.37 C 37.36 236.16 40.98 233.03 42.74 229.67 Z" />
<path fill="#59b3ff" d=" M 205.85 234.95 C 213.67 234.06 220.97 230.91 228.51 228.83 C 227.66 230.67 226.63 232.42 225.42 234.05 C 229.07 233.21 232.76 232.53 236.48 232.08 C 236.48 233.17 236.47 234.25 236.48 235.34 C 235.91 235.98 234.76 237.28 234.19 237.93 C 231.84 240.09 229.29 242.22 226.04 242.79 C 226.51 241.58 226.99 240.37 227.48 239.17 C 221.32 239.18 215.16 239.40 209.06 240.27 C 206.00 240.83 203.03 239.78 200.07 239.21 C 198.13 240.13 196.71 241.85 195.21 243.34 L 194.59 244.05 C 194.46 243.34 194.20 241.92 194.07 241.21 C 191.71 242.61 188.96 242.82 186.51 241.52 C 184.70 242.40 182.87 243.22 180.97 243.89 C 182.45 241.00 184.93 238.86 187.23 236.65 C 188.27 236.51 189.30 236.32 190.34 236.14 C 190.35 236.65 190.38 237.67 190.39 238.18 C 193.72 236.38 197.55 236.14 201.07 234.88 C 202.61 234.21 204.26 234.89 205.85 234.95 Z" />
<path fill="#4ba0ee" d=" M 116.93 231.63 C 123.80 234.13 130.93 235.77 138.07 237.26 C 137.03 237.69 135.99 238.14 134.96 238.61 C 137.80 241.09 141.73 241.27 145.13 242.57 C 133.51 243.33 121.85 242.54 110.21 243.04 C 109.74 243.51 108.79 244.45 108.31 244.92 C 107.67 243.66 107.10 242.35 106.82 240.96 C 107.31 239.11 109.39 238.95 110.97 238.93 C 114.06 238.93 117.18 239.20 120.21 238.44 C 118.41 236.53 115.15 234.68 116.93 231.63 Z" />
<path fill="#367bb6" d=" M 22.03 245.90 C 26.83 241.84 32.39 238.78 38.02 236.05 C 40.03 239.46 41.84 243.32 41.16 247.38 C 40.10 247.65 39.05 247.95 38.01 248.28 C 36.65 246.84 35.48 245.24 34.61 243.45 C 31.50 243.24 28.20 243.15 25.44 244.87 C 25.40 245.42 25.33 246.51 25.29 247.05 L 24.79 247.58 C 24.10 247.16 22.72 246.32 22.03 245.90 Z" />
<path fill="#4295e1" d=" M 158.87 238.52 C 162.29 238.53 165.24 235.52 168.74 236.55 C 174.88 237.98 181.10 235.57 187.23 236.65 C 184.93 238.86 182.45 241.00 180.97 243.89 C 182.87 243.22 184.70 242.40 186.51 241.52 C 188.96 242.82 191.71 242.61 194.07 241.21 C 194.20 241.92 194.46 243.34 194.59 244.05 C 193.80 244.97 193.04 245.93 192.31 246.90 C 191.98 247.24 191.33 247.93 191.00 248.27 C 187.94 247.50 184.91 246.60 181.97 245.43 C 181.22 246.21 180.49 247.02 179.76 247.82 L 179.18 248.43 C 178.33 247.80 177.49 247.17 176.64 246.54 C 174.58 246.62 172.53 246.70 170.48 246.80 C 170.42 245.84 170.36 244.87 170.30 243.91 C 168.78 245.13 167.25 246.35 165.88 247.75 L 165.44 248.19 C 161.29 246.29 156.69 246.79 152.27 246.75 C 152.46 245.59 152.65 244.43 152.84 243.27 C 151.23 244.64 149.70 246.21 147.71 247.01 C 145.71 246.95 143.90 245.72 141.87 245.94 C 132.58 246.73 123.25 246.08 113.94 246.30 C 112.53 246.18 111.40 247.05 110.25 247.72 C 109.59 246.79 108.94 245.86 108.31 244.92 C 108.79 244.45 109.74 243.51 110.21 243.04 C 121.85 242.54 133.51 243.33 145.13 242.57 C 141.73 241.27 137.80 241.09 134.96 238.61 C 135.99 238.14 137.03 237.69 138.07 237.26 C 138.68 237.05 139.90 236.64 140.51 236.43 C 146.36 238.84 152.72 238.14 158.87 238.52 Z" />
<path fill="#65d6fa" d=" M 100.02 237.78 C 103.60 235.55 105.05 241.22 106.21 243.64 C 105.19 243.15 104.20 242.64 103.21 242.11 C 102.12 240.69 101.08 239.23 100.02 237.78 Z" />
<path fill="#449cea" d=" M 226.04 242.79 C 229.29 242.22 231.84 240.09 234.19 237.93 L 236.27 237.41 C 232.70 240.70 228.58 243.32 224.49 245.90 C 219.77 244.01 216.23 248.56 212.18 250.12 C 212.85 249.04 213.47 247.93 214.10 246.83 C 207.96 246.26 201.79 246.71 195.64 246.59 C 195.50 245.50 195.35 244.42 195.21 243.34 C 196.71 241.85 198.13 240.13 200.07 239.21 C 203.03 239.78 206.00 240.83 209.06 240.27 C 215.16 239.40 221.32 239.18 227.48 239.17 C 226.99 240.37 226.51 241.58 226.04 242.79 Z" />
<path fill="#3476af" d=" M 47.98 243.23 C 49.15 241.20 50.72 239.44 52.71 238.19 C 55.25 239.79 57.77 242.16 61.00 241.86 C 64.85 242.02 67.61 238.85 71.16 237.90 C 70.94 240.86 68.81 243.00 66.93 245.08 C 64.41 244.87 62.21 245.94 60.58 247.82 C 60.20 248.20 59.44 248.96 59.06 249.34 C 57.87 247.11 59.52 245.13 60.70 243.33 C 58.23 243.59 55.69 243.54 53.28 244.23 C 51.50 245.45 50.38 247.37 49.12 249.08 C 49.05 247.08 48.57 245.13 47.98 243.23 Z" />
<path fill="#3e97e4" d=" M 66.93 245.08 C 72.18 243.67 75.99 239.37 81.22 237.85 C 82.34 242.12 85.77 245.03 89.24 247.46 C 86.53 247.91 83.87 249.79 81.08 248.86 C 76.25 247.54 71.29 249.08 66.39 248.81 C 66.57 247.56 66.74 246.32 66.93 245.08 Z" />
<path fill="#26669d" d=" M 25.44 244.87 C 28.20 243.15 31.50 243.24 34.61 243.45 C 35.48 245.24 36.65 246.84 38.01 248.28 C 38.98 249.34 38.19 250.66 36.81 250.43 C 32.86 249.74 29.18 248.01 25.29 247.05 C 25.33 246.51 25.40 245.42 25.44 244.87 Z" />
<path fill="#1b68a4" d=" M 53.28 244.23 C 55.69 243.54 58.23 243.59 60.70 243.33 C 59.52 245.13 57.87 247.11 59.06 249.34 C 59.76 251.72 60.55 254.11 61.78 256.28 C 63.73 257.10 65.89 257.22 67.95 257.61 C 67.18 261.11 63.62 264.17 64.84 267.90 C 64.41 268.49 63.97 269.09 63.53 269.69 C 62.55 271.01 61.56 272.31 60.59 273.64 C 60.72 270.57 61.98 267.74 62.89 264.87 C 59.20 264.32 55.46 264.30 51.76 264.78 C 51.73 268.01 51.51 271.22 51.22 274.43 C 50.62 272.59 49.94 270.78 49.41 268.92 C 49.33 268.58 49.17 267.92 49.09 267.58 C 49.62 264.00 48.57 260.52 47.70 257.09 C 47.79 254.37 48.18 251.65 49.12 249.08 C 50.38 247.37 51.50 245.45 53.28 244.23 Z" />
<path fill="#2e85cd" d=" M 147.71 247.01 C 149.70 246.21 151.23 244.64 152.84 243.27 C 152.65 244.43 152.46 245.59 152.27 246.75 C 156.69 246.79 161.29 246.29 165.44 248.19 C 163.90 249.52 162.55 251.68 160.27 251.63 C 155.68 251.83 151.09 252.28 146.49 251.92 C 146.86 250.86 147.22 249.79 147.59 248.73 C 146.11 249.81 144.68 250.95 143.36 252.22 C 142.80 252.76 141.67 253.83 141.11 254.36 C 138.84 253.44 136.51 252.34 133.99 252.57 C 128.17 252.84 122.35 252.54 116.54 252.96 C 116.46 253.58 116.29 254.81 116.21 255.42 C 114.66 253.81 113.35 252.00 112.05 250.19 C 111.60 249.57 110.70 248.33 110.25 247.72 C 111.40 247.05 112.53 246.18 113.94 246.30 C 123.25 246.08 132.58 246.73 141.87 245.94 C 143.90 245.72 145.71 246.95 147.71 247.01 Z" />
<path fill="#2c80c3" d=" M 43.40 247.32 C 44.60 245.94 45.78 244.54 47.04 243.21 L 47.98 243.23 C 48.57 245.13 49.05 247.08 49.12 249.08 C 48.18 251.65 47.79 254.37 47.70 257.09 C 46.84 255.40 45.68 253.90 44.50 252.43 C 42.36 252.25 40.21 252.37 38.19 253.17 C 33.25 251.78 28.36 250.24 23.52 248.58 C 23.83 248.33 24.47 247.83 24.79 247.58 L 25.29 247.05 C 29.18 248.01 32.86 249.74 36.81 250.43 C 38.19 250.66 38.98 249.34 38.01 248.28 C 39.05 247.95 40.10 247.65 41.16 247.38 C 41.90 247.34 42.65 247.33 43.40 247.32 Z" />
<path fill="#2e85cd" d=" M 165.88 247.75 C 167.25 246.35 168.78 245.13 170.30 243.91 C 170.36 244.87 170.42 245.84 170.48 246.80 C 172.53 246.70 174.58 246.62 176.64 246.54 C 177.49 247.17 178.33 247.80 179.18 248.43 C 176.83 250.89 173.84 252.59 170.84 254.14 C 170.77 253.60 170.64 252.51 170.57 251.97 C 168.54 251.93 166.50 251.89 164.47 251.86 C 164.92 250.48 165.37 249.10 165.88 247.75 Z" />
<path fill="#2e85cd" d=" M 194.59 244.05 L 195.21 243.34 C 195.35 244.42 195.50 245.50 195.64 246.59 C 201.79 246.71 207.96 246.26 214.10 246.83 C 213.47 247.93 212.85 249.04 212.18 250.12 C 209.02 251.83 205.73 253.29 202.39 254.59 C 202.81 253.74 203.23 252.88 203.65 252.03 C 198.92 251.84 194.20 252.07 189.48 252.03 C 190.66 250.46 191.57 248.72 192.31 246.90 C 193.04 245.93 193.80 244.97 194.59 244.05 Z" />
<path fill="#2b83cc" d=" M 60.58 247.82 C 62.21 245.94 64.41 244.87 66.93 245.08 C 66.74 246.32 66.57 247.56 66.39 248.81 C 71.29 249.08 76.25 247.54 81.08 248.86 C 83.87 249.79 86.53 247.91 89.24 247.46 C 89.58 247.40 90.28 247.29 90.63 247.23 C 93.82 251.42 96.98 255.63 100.15 259.84 C 90.39 259.66 80.64 259.75 70.88 259.49 C 75.38 258.69 80.24 260.38 84.46 258.29 C 79.95 257.29 75.31 257.70 70.73 257.65 C 74.98 256.61 79.42 256.67 83.75 257.16 C 87.42 257.92 91.20 258.84 94.89 257.61 C 93.78 255.21 92.35 252.98 90.64 250.96 C 90.03 250.21 89.41 249.47 88.80 248.73 C 86.05 250.13 84.02 252.48 81.83 254.57 C 78.17 251.46 73.37 252.03 68.93 252.17 C 65.45 252.60 63.04 249.75 60.58 247.82 Z" />
<path fill="#2e85cd" d=" M 181.97 245.43 C 184.91 246.60 187.94 247.50 191.00 248.27 C 189.17 249.93 187.44 251.96 185.04 252.77 C 182.79 252.70 180.61 252.10 178.42 251.66 C 178.85 250.37 179.28 249.09 179.76 247.82 C 180.49 247.02 181.22 246.21 181.97 245.43 Z" />
<path fill="#33acff" d=" M 212.18 250.12 C 216.23 248.56 219.77 244.01 224.49 245.90 C 215.11 251.72 204.94 256.21 194.38 259.43 C 193.71 259.10 192.37 258.43 191.70 258.09 C 195.42 257.47 198.90 255.97 202.39 254.59 C 205.73 253.29 209.02 251.83 212.18 250.12 Z" />
<path fill="#2376bb" d=" M 191.00 248.27 C 191.33 247.93 191.98 247.24 192.31 246.90 C 191.57 248.72 190.66 250.46 189.48 252.03 C 194.20 252.07 198.92 251.84 203.65 252.03 C 203.23 252.88 202.81 253.74 202.39 254.59 C 198.90 255.97 195.42 257.47 191.70 258.09 C 190.10 258.38 188.49 258.59 186.89 258.88 C 187.49 258.45 188.09 258.03 188.68 257.60 C 187.64 257.25 186.60 256.91 185.56 256.57 C 185.47 255.72 185.38 254.87 185.29 254.02 C 184.00 255.14 182.78 256.39 181.25 257.21 C 178.20 257.88 175.16 256.59 172.23 255.83 C 168.08 259.07 162.70 257.19 158.23 255.76 C 156.71 256.49 155.27 257.83 153.47 257.50 C 149.46 257.20 145.44 257.00 141.41 257.01 C 142.25 255.50 143.03 253.93 143.36 252.22 C 144.68 250.95 146.11 249.81 147.59 248.73 C 147.22 249.79 146.86 250.86 146.49 251.92 C 151.09 252.28 155.68 251.83 160.27 251.63 C 162.55 251.68 163.90 249.52 165.44 248.19 L 165.88 247.75 C 165.37 249.10 164.92 250.48 164.47 251.86 C 166.50 251.89 168.54 251.93 170.57 251.97 C 170.64 252.51 170.77 253.60 170.84 254.14 C 173.84 252.59 176.83 250.89 179.18 248.43 L 179.76 247.82 C 179.28 249.09 178.85 250.37 178.42 251.66 C 180.61 252.10 182.79 252.70 185.04 252.77 C 187.44 251.96 189.17 249.93 191.00 248.27 Z" />
<path fill="#2376bb" d=" M 59.06 249.34 C 59.44 248.96 60.20 248.20 60.58 247.82 C 63.04 249.75 65.45 252.60 68.93 252.17 C 73.37 252.03 78.17 251.46 81.83 254.57 C 84.02 252.48 86.05 250.13 88.80 248.73 C 89.41 249.47 90.03 250.21 90.64 250.96 C 87.12 251.27 85.49 254.56 83.75 257.16 C 79.42 256.67 74.98 256.61 70.73 257.65 C 69.02 258.80 67.97 260.56 68.55 262.66 C 67.34 264.42 66.12 266.18 64.84 267.90 C 63.62 264.17 67.18 261.11 67.95 257.61 C 65.89 257.22 63.73 257.10 61.78 256.28 C 60.55 254.11 59.76 251.72 59.06 249.34 Z" />
<path fill="#33acff" d=" M 112.05 250.19 C 113.35 252.00 114.66 253.81 116.21 255.42 C 122.03 257.60 127.83 260.16 134.08 260.79 C 142.27 262.82 150.78 263.74 159.21 263.38 C 156.30 263.68 153.39 264.01 150.50 264.45 C 145.48 264.04 140.50 263.40 135.52 262.67 C 129.22 261.55 123.01 259.91 116.95 257.84 C 113.47 257.04 111.96 253.43 109.84 250.94 C 110.39 250.75 111.50 250.38 112.05 250.19 Z" />
<path fill="#195e95" d=" M 83.75 257.16 C 85.49 254.56 87.12 251.27 90.64 250.96 C 92.35 252.98 93.78 255.21 94.89 257.61 C 91.20 258.84 87.42 257.92 83.75 257.16 Z" />
<path fill="#33acff" d=" M 38.19 253.17 C 40.21 252.37 42.36 252.25 44.50 252.43 C 45.68 253.90 46.84 255.40 47.70 257.09 C 48.57 260.52 49.62 264.00 49.09 267.58 C 48.05 263.54 46.52 259.64 45.25 255.67 C 42.93 254.72 40.59 253.85 38.19 253.17 Z" />
<path fill="#2076bb" d=" M 133.99 252.57 C 136.51 252.34 138.84 253.44 141.11 254.36 C 139.71 255.59 138.45 257.09 136.71 257.84 C 133.55 257.00 130.31 256.37 127.10 257.44 C 129.56 258.24 131.98 259.23 134.08 260.79 C 127.83 260.16 122.03 257.60 116.21 255.42 C 116.29 254.81 116.46 253.58 116.54 252.96 C 122.35 252.54 128.17 252.84 133.99 252.57 Z" />
<path fill="#1967a9" d=" M 141.11 254.36 C 141.67 253.83 142.80 252.76 143.36 252.22 C 143.03 253.93 142.25 255.50 141.41 257.01 C 145.44 257.00 149.46 257.20 153.47 257.50 C 155.27 257.83 156.71 256.49 158.23 255.76 C 162.70 257.19 168.08 259.07 172.23 255.83 C 175.16 256.59 178.20 257.88 181.25 257.21 C 182.78 256.39 184.00 255.14 185.29 254.02 C 185.38 254.87 185.47 255.72 185.56 256.57 C 186.60 256.91 187.64 257.25 188.68 257.60 C 188.09 258.03 187.49 258.45 186.89 258.88 C 182.04 260.23 177.20 261.84 172.13 262.10 C 169.55 262.46 166.60 262.11 164.52 263.97 C 165.18 264.11 166.52 264.39 167.19 264.53 C 161.64 264.99 156.01 265.48 150.50 264.45 C 153.39 264.01 156.30 263.68 159.21 263.38 C 150.78 263.74 142.27 262.82 134.08 260.79 C 131.98 259.23 129.56 258.24 127.10 257.44 C 130.31 256.37 133.55 257.00 136.71 257.84 C 138.45 257.09 139.71 255.59 141.11 254.36 Z" />
<path fill="#2495f1" d=" M 68.55 262.66 C 67.97 260.56 69.02 258.80 70.73 257.65 C 75.31 257.70 79.95 257.29 84.46 258.29 C 80.24 260.38 75.38 258.69 70.88 259.49 C 70.10 260.54 69.32 261.60 68.55 262.66 Z" />
<path fill="#1d7fd1" d=" M 186.89 258.88 C 188.49 258.59 190.10 258.38 191.70 258.09 C 192.37 258.43 193.71 259.10 194.38 259.43 C 185.60 262.34 176.39 263.78 167.19 264.53 C 166.52 264.39 165.18 264.11 164.52 263.97 C 166.60 262.11 169.55 262.46 172.13 262.10 C 177.20 261.84 182.04 260.23 186.89 258.88 Z" />
<path fill="#1d81d8" d=" M 160.38 263.35 C 161.07 262.52 163.61 262.33 163.52 263.77 C 162.82 264.58 160.30 264.80 160.38 263.35 Z" />
<path fill="#11518b" d=" M 51.76 264.78 C 55.46 264.30 59.20 264.32 62.89 264.87 C 61.98 267.74 60.72 270.57 60.59 273.64 C 59.62 275.04 58.69 276.46 57.72 277.87 C 57.13 274.88 58.67 272.08 59.04 269.17 C 57.08 269.17 55.13 269.19 53.17 269.23 C 53.26 272.73 53.72 276.26 53.04 279.73 C 52.36 277.99 51.74 276.23 51.22 274.43 C 51.51 271.22 51.73 268.01 51.76 264.78 Z" />
<path fill="#1e272c" d=" M 49.41 268.92 C 49.94 270.78 50.62 272.59 51.22 274.43 C 51.74 276.23 52.36 277.99 53.04 279.73 C 53.27 280.33 53.73 281.53 53.96 282.13 C 55.31 280.79 56.65 279.44 57.72 277.87 C 58.69 276.46 59.62 275.04 60.59 273.64 C 61.56 272.31 62.55 271.01 63.53 269.69 C 64.19 270.12 65.51 270.97 66.17 271.40 C 62.92 275.79 59.95 280.37 56.68 284.74 C 55.70 286.49 53.05 286.54 51.54 285.47 C 49.61 280.93 48.50 276.09 46.93 271.43 C 47.75 270.58 48.58 269.75 49.41 268.92 Z" />
<path fill="#113e72" d=" M 53.17 269.23 C 55.13 269.19 57.08 269.17 59.04 269.17 C 58.67 272.08 57.13 274.88 57.72 277.87 C 56.65 279.44 55.31 280.79 53.96 282.13 C 53.73 281.53 53.27 280.33 53.04 279.73 C 53.72 276.26 53.26 272.73 53.17 269.23 Z" />
</svg>
