<?xml version="1.0" encoding="UTF-8" standalone="no"?>
<!-- Created with Inkscape (http://www.inkscape.org/) -->

<svg
   xmlns:dc="http://purl.org/dc/elements/1.1/"
   xmlns:cc="http://creativecommons.org/ns#"
   xmlns:rdf="http://www.w3.org/1999/02/22-rdf-syntax-ns#"
   xmlns:svg="http://www.w3.org/2000/svg"
   xmlns="http://www.w3.org/2000/svg"
   xmlns:xlink="http://www.w3.org/1999/xlink"
   xmlns:sodipodi="http://sodipodi.sourceforge.net/DTD/sodipodi-0.dtd"
   xmlns:inkscape="http://www.inkscape.org/namespaces/inkscape"
   width="203.94099"
   height="16.702"
   id="svg7857"
   version="1.1"
   inkscape:version="0.47pre3 r22311"
   sodipodi:docname="Nouveau document 15">
  <defs
     id="defs7859">
    <inkscape:perspective
       sodipodi:type="inkscape:persp3d"
       inkscape:vp_x="0 : 526.18109 : 1"
       inkscape:vp_y="0 : 1000 : 0"
       inkscape:vp_z="744.09448 : 526.18109 : 1"
       inkscape:persp3d-origin="372.04724 : 350.78739 : 1"
       id="perspective7865" />
    <inkscape:perspective
       id="perspective7770"
       inkscape:persp3d-origin="0.5 : 0.33333333 : 1"
       inkscape:vp_z="1 : 0.5 : 1"
       inkscape:vp_y="0 : 1000 : 0"
       inkscape:vp_x="0 : 0.5 : 1"
       sodipodi:type="inkscape:persp3d" />
    <linearGradient
       inkscape:collect="always"
       xlink:href="#SVGID_23_"
       id="linearGradient6490"
       gradientUnits="userSpaceOnUse"
       gradientTransform="matrix(-1.631898e-6,37.3335,37.3335,1.631898e-6,-16027.419,-5260.8554)"
       x1="152.83299"
       y1="440.48441"
       x2="153.83299"
       y2="440.48441" />
    <linearGradient
       gradientTransform="matrix(-1.631898e-6,37.3335,37.3335,1.631898e-6,-16250.476,-5713.438)"
       y2="440.48441"
       x2="153.83299"
       y1="440.48441"
       x1="152.83299"
       gradientUnits="userSpaceOnUse"
       id="SVGID_23_">
      <stop
         id="stop6367"
         style="stop-color:#D9DDEE"
         offset="0" />
      <stop
         id="stop6369"
         style="stop-color:#BEC0CA"
         offset="0.6898" />
      <stop
         id="stop6371"
         style="stop-color:#B2B2B2"
         offset="1" />
    </linearGradient>
    <linearGradient
       inkscape:collect="always"
       xlink:href="#SVGID_22_"
       id="linearGradient6493"
       gradientUnits="userSpaceOnUse"
       gradientTransform="matrix(-7.139579e-7,-16.3335,-16.3335,7.139579e-7,7480.2936,2968.5714)"
       x1="152.83299"
       y1="432.42191"
       x2="153.83299"
       y2="432.42191" />
    <linearGradient
       gradientTransform="matrix(-7.139579e-7,-16.3335,-16.3335,7.139579e-7,7257.2368,2515.9888)"
       y2="432.42191"
       x2="153.83299"
       y1="432.42191"
       x1="152.83299"
       gradientUnits="userSpaceOnUse"
       id="SVGID_22_">
      <stop
         id="stop6358"
         style="stop-color:#D9DDEE"
         offset="0" />
      <stop
         id="stop6360"
         style="stop-color:#BEC0CA"
         offset="0.6898" />
      <stop
         id="stop6362"
         style="stop-color:#B2B2B2"
         offset="1" />
    </linearGradient>
    <linearGradient
       inkscape:collect="always"
       xlink:href="#SVGID_21_"
       id="linearGradient6496"
       gradientUnits="userSpaceOnUse"
       gradientTransform="matrix(-7.139579e-7,-16.3335,-16.3335,7.139579e-7,7480.2936,2968.5714)"
       x1="152.83299"
       y1="432.66599"
       x2="153.83299"
       y2="432.66599" />
    <linearGradient
       gradientTransform="matrix(-7.139579e-7,-16.3335,-16.3335,7.139579e-7,7257.2368,2515.9888)"
       y2="432.66599"
       x2="153.83299"
       y1="432.66599"
       x1="152.83299"
       gradientUnits="userSpaceOnUse"
       id="SVGID_21_">
      <stop
         id="stop6349"
         style="stop-color:#D9DDEE"
         offset="0" />
      <stop
         id="stop6351"
         style="stop-color:#BEC0CA"
         offset="0.6898" />
      <stop
         id="stop6353"
         style="stop-color:#B2B2B2"
         offset="1" />
    </linearGradient>
    <linearGradient
       gradientTransform="matrix(-1.631898e-6,37.3335,37.3335,1.631898e-6,-16250.476,-5713.438)"
       y2="440.2764"
       x2="153.83299"
       y1="440.2764"
       x1="152.83299"
       gradientUnits="userSpaceOnUse"
       id="SVGID_20_">
      <stop
         id="stop6340"
         style="stop-color:#D9DDEE"
         offset="0" />
      <stop
         id="stop6342"
         style="stop-color:#BEC0CA"
         offset="0.6898" />
      <stop
         id="stop6344"
         style="stop-color:#B2B2B2"
         offset="1" />
    </linearGradient>
    <linearGradient
       gradientTransform="matrix(-7.139579e-7,-16.3335,-16.3335,7.139579e-7,7257.2368,2515.9888)"
       y2="432.93069"
       x2="153.83299"
       y1="432.93069"
       x1="152.83299"
       gradientUnits="userSpaceOnUse"
       id="SVGID_19_">
      <stop
         id="stop6331"
         style="stop-color:#D9DDEE"
         offset="0" />
      <stop
         id="stop6333"
         style="stop-color:#BEC0CA"
         offset="0.6898" />
      <stop
         id="stop6335"
         style="stop-color:#B2B2B2"
         offset="1" />
    </linearGradient>
    <linearGradient
       gradientTransform="matrix(-1.631898e-6,37.3335,37.3335,1.631898e-6,-16250.476,-5713.438)"
       y2="439.97559"
       x2="153.83299"
       y1="439.97559"
       x1="152.83299"
       gradientUnits="userSpaceOnUse"
       id="SVGID_18_">
      <stop
         id="stop6322"
         style="stop-color:#D9DDEE"
         offset="0" />
      <stop
         id="stop6324"
         style="stop-color:#BEC0CA"
         offset="0.6898" />
      <stop
         id="stop6326"
         style="stop-color:#B2B2B2"
         offset="1" />
    </linearGradient>
    <linearGradient
       gradientTransform="matrix(-7.139579e-7,-16.3335,-16.3335,7.139579e-7,7257.2368,2515.9888)"
       y2="433.58109"
       x2="153.83299"
       y1="433.58109"
       x1="152.83299"
       gradientUnits="userSpaceOnUse"
       id="SVGID_17_">
      <stop
         id="stop6313"
         style="stop-color:#D9DDEE"
         offset="0" />
      <stop
         id="stop6315"
         style="stop-color:#BEC0CA"
         offset="0.6898" />
      <stop
         id="stop6317"
         style="stop-color:#B2B2B2"
         offset="1" />
    </linearGradient>
    <linearGradient
       inkscape:collect="always"
       xlink:href="#SVGID_16_"
       id="linearGradient6503"
       gradientUnits="userSpaceOnUse"
       gradientTransform="matrix(-1.631898e-6,37.3335,37.3335,1.631898e-6,-16027.419,-5260.8554)"
       x1="152.83299"
       y1="439.73929"
       x2="153.83299"
       y2="439.73929" />
    <linearGradient
       gradientTransform="matrix(-1.631898e-6,37.3335,37.3335,1.631898e-6,-16250.476,-5713.438)"
       y2="439.73929"
       x2="153.83299"
       y1="439.73929"
       x1="152.83299"
       gradientUnits="userSpaceOnUse"
       id="SVGID_16_">
      <stop
         id="stop6304"
         style="stop-color:#D9DDEE"
         offset="0" />
      <stop
         id="stop6306"
         style="stop-color:#BEC0CA"
         offset="0.6898" />
      <stop
         id="stop6308"
         style="stop-color:#B2B2B2"
         offset="1" />
    </linearGradient>
    <linearGradient
       inkscape:collect="always"
       xlink:href="#SVGID_15_"
       id="linearGradient6506"
       gradientUnits="userSpaceOnUse"
       gradientTransform="matrix(-7.139579e-7,-16.3335,-16.3335,7.139579e-7,7480.2936,2968.5714)"
       x1="152.83299"
       y1="434.11331"
       x2="153.83299"
       y2="434.11331" />
    <linearGradient
       gradientTransform="matrix(-7.139579e-7,-16.3335,-16.3335,7.139579e-7,7257.2368,2515.9888)"
       y2="434.11331"
       x2="153.83299"
       y1="434.11331"
       x1="152.83299"
       gradientUnits="userSpaceOnUse"
       id="SVGID_15_">
      <stop
         id="stop6295"
         style="stop-color:#D9DDEE"
         offset="0" />
      <stop
         id="stop6297"
         style="stop-color:#BEC0CA"
         offset="0.6898" />
      <stop
         id="stop6299"
         style="stop-color:#B2B2B2"
         offset="1" />
    </linearGradient>
    <linearGradient
       inkscape:collect="always"
       xlink:href="#SVGID_14_"
       id="linearGradient6509"
       gradientUnits="userSpaceOnUse"
       gradientTransform="matrix(-1.631898e-6,37.3335,37.3335,1.631898e-6,-16027.419,-5260.8554)"
       x1="152.83299"
       y1="439.5166"
       x2="153.83299"
       y2="439.5166" />
    <linearGradient
       gradientTransform="matrix(-1.631898e-6,37.3335,37.3335,1.631898e-6,-16250.476,-5713.438)"
       y2="439.5166"
       x2="153.83299"
       y1="439.5166"
       x1="152.83299"
       gradientUnits="userSpaceOnUse"
       id="SVGID_14_">
      <stop
         id="stop6286"
         style="stop-color:#D9DDEE"
         offset="0" />
      <stop
         id="stop6288"
         style="stop-color:#BEC0CA"
         offset="0.6898" />
      <stop
         id="stop6290"
         style="stop-color:#B2B2B2"
         offset="1" />
    </linearGradient>
    <linearGradient
       gradientTransform="matrix(-7.139579e-7,-16.3335,-16.3335,7.139579e-7,7257.2368,2515.9888)"
       y2="434.62601"
       x2="153.83299"
       y1="434.62601"
       x1="152.83299"
       gradientUnits="userSpaceOnUse"
       id="SVGID_13_">
      <stop
         id="stop6277"
         style="stop-color:#D9DDEE"
         offset="0" />
      <stop
         id="stop6279"
         style="stop-color:#BEC0CA"
         offset="0.6898" />
      <stop
         id="stop6281"
         style="stop-color:#B2B2B2"
         offset="1" />
    </linearGradient>
    <linearGradient
       inkscape:collect="always"
       xlink:href="#SVGID_6_"
       id="linearGradient6535"
       gradientUnits="userSpaceOnUse"
       gradientTransform="matrix(-1.631898e-6,37.3335,37.3335,1.631898e-6,-16027.419,-5260.8554)"
       x1="152.83299"
       y1="438.0303"
       x2="153.83299"
       y2="438.0303" />
    <linearGradient
       gradientTransform="matrix(-1.631898e-6,37.3335,37.3335,1.631898e-6,-16250.476,-5713.438)"
       y2="438.0303"
       x2="153.83299"
       y1="438.0303"
       x1="152.83299"
       gradientUnits="userSpaceOnUse"
       id="SVGID_6_">
      <stop
         id="stop6202"
         style="stop-color:#808DC6"
         offset="0" />
      <stop
         id="stop6204"
         style="stop-color:#272F50"
         offset="0.6898" />
      <stop
         id="stop6206"
         style="stop-color:#000000"
         offset="1" />
    </linearGradient>
    <linearGradient
       inkscape:collect="always"
       xlink:href="#SVGID_5_"
       id="linearGradient6538"
       gradientUnits="userSpaceOnUse"
       gradientTransform="matrix(-7.139579e-7,-16.3335,-16.3335,7.139579e-7,7257.2368,2515.9888)"
       x1="152.83299"
       y1="438.0303"
       x2="153.83299"
       y2="438.0303" />
    <linearGradient
       gradientTransform="matrix(-7.139579e-7,-16.3335,-16.3335,7.139579e-7,7257.2368,2515.9888)"
       y2="438.0303"
       x2="153.83299"
       y1="438.0303"
       x1="152.83299"
       gradientUnits="userSpaceOnUse"
       id="SVGID_5_">
      <stop
         id="stop6193"
         style="stop-color:#808DC6"
         offset="0" />
      <stop
         id="stop6195"
         style="stop-color:#272F50"
         offset="0.6898" />
      <stop
         id="stop6197"
         style="stop-color:#000000"
         offset="1" />
    </linearGradient>
    <linearGradient
       y2="438.0303"
       x2="153.83299"
       y1="438.0303"
       x1="152.83299"
       gradientTransform="matrix(-7.139579e-7,-16.3335,-16.3335,7.139579e-7,7480.2936,2968.5714)"
       gradientUnits="userSpaceOnUse"
       id="linearGradient7855"
       xlink:href="#SVGID_5_"
       inkscape:collect="always" />
  </defs>
  <sodipodi:namedview
     id="base"
     pagecolor="#ffffff"
     bordercolor="#666666"
     borderopacity="1.0"
     inkscape:pageopacity="0.0"
     inkscape:pageshadow="2"
     inkscape:zoom="2.8"
     inkscape:cx="151.25621"
     inkscape:cy="-63.077573"
     inkscape:document-units="px"
     inkscape:current-layer="layer1"
     showgrid="false"
     inkscape:window-width="1276"
     inkscape:window-height="742"
     inkscape:window-x="0"
     inkscape:window-y="0"
     inkscape:window-maximized="1" />
  <metadata
     id="metadata7862">
    <rdf:RDF>
      <cc:Work
         rdf:about="">
        <dc:format>image/svg+xml</dc:format>
        <dc:type
           rdf:resource="http://purl.org/dc/dcmitype/StillImage" />
        <dc:title></dc:title>
      </cc:Work>
    </rdf:RDF>
  </metadata>
  <g
     inkscape:label="Calque 1"
     inkscape:groupmode="layer"
     id="layer1"
     transform="translate(-223.74379,-452.58261)">
    <path
       style="fill:url(#linearGradient7855)"
       id="path6199"
       d="m 380.70279,460.18761 h -1.25 v 1.107 l 1.25,-1.107 m 10.762,0 h -3.893 v 3.933 h 1.602 c 1.962,0 2.637,-1.386 2.637,-2.556 0,-0.457 -0.104,-0.948 -0.346,-1.377 m 18.301,0 h -0.361 l -2.186,2.34 h 2.547 v -2.34 m 3.609,5.049 c -0.351,0 -0.657,-0.279 -0.657,-0.639 0,-0.351 0.306,-0.639 0.657,-0.639 0.36,0 0.648,0.288 0.648,0.648 0,0.351 -0.288,0.63 -0.648,0.63 m 14.103,-5.049 h -7.659 c -0.152,0.863 -0.922,1.133 -1.359,1.287 0.612,0.198 1.467,0.621 1.467,1.818 0,1.53 -1.692,1.89 -2.7,1.89 -1.359,0 -1.89,-0.468 -2.43,-0.774 v -0.927 c 0.45,0.315 1.404,0.855 2.214,0.855 1.08,0 1.584,-0.432 1.584,-1.071 0,-0.594 -0.333,-1.323 -1.881,-1.377 v -0.72 c 0.076,0.006 0.159,0.01 0.248,0.01 0.601,0 1.418,-0.179 1.584,-0.991 h -7.592 v 2.34 h 0.918 v 0.801 h -0.918 v 1.719 h -1.188 v -1.719 h -3.519 v -0.801 l 2.118,-2.34 h -11.685 v 0.873 h 3.222 v 0.891 h -3.222 v 2.214 h 4.806 v 0.882 h -6.138 v -4.86 h -2.362 c 0.153,0.394 0.238,0.851 0.238,1.377 0,2.574 -2.043,3.483 -4.05,3.483 h -2.925 v -4.86 h -4.145 l -1.174,1.035 3.663,3.825 h -1.872 l -3.267,-3.456 v 3.456 h -1.332 v -4.86 h -154.098 v 8.883 h 0.036 203.418 v -8.883" />
    <path
       style="fill:url(#linearGradient6535)"
       id="path6208"
       d="m 409.76579,459.80061 -0.361,0.387 h 0.361 v -0.387 m -20.592,-0.801 h -1.602 v 1.188 h 3.893 c -0.378,-0.669 -1.095,-1.188 -2.291,-1.188 m 38.331,-6.272 h -0.126 -203.238 -0.126 v 7.461 h 0.009 154.098 v -2.116 h 1.332 v 2.115 h 1.25 l 2.387,-2.115 h 1.413 l -2.399,2.115 h 4.145 v -2.115 h 2.925 c 1.597,0 3.216,0.581 3.812,2.115 h 2.362 v -2.115 h 6.084 v 0.873 h -4.752 v 1.242 h 11.685 l 1.915,-2.115 h 0.675 v 2.115 h 7.592 c 0.02,-0.096 0.031,-0.201 0.031,-0.315 0,-0.486 -0.405,-1.098 -1.566,-1.098 -0.936,0 -1.539,0.423 -2.043,0.774 v -1.017 c 0.387,-0.171 1.206,-0.603 2.34,-0.603 0.936,0 2.538,0.531 2.538,1.944 0,0.113 -0.01,0.218 -0.027,0.315 h 7.659 0.027 v -7.46" />
    <polyline
       transform="translate(223.05679,452.58261)"
       style="fill:#808dc6"
       id="polyline6210"
       points="204.623,16.362 0.687,16.362 0.687,16.702 204.623,16.702 204.623,16.362  " />
    <polyline
       transform="translate(223.05679,452.58261)"
       style="fill:#808dc6"
       id="polyline6212"
       points="204.623,0 0.687,0 0.687,0.299 204.623,0.299 204.623,0  " />
    <polyline
       transform="translate(223.05679,452.58261)"
       style="fill:#808dc6"
       id="polyline6214"
       points="0.962,16.382 0.962,0 0.691,0 0.691,16.382 0.962,16.382  " />
    <polyline
       transform="translate(223.05679,452.58261)"
       style="fill:#808dc6"
       id="polyline6216"
       points="204.628,16.695 204.628,0.313 204.358,0.313 204.357,16.695 204.628,16.695  " />
    <polyline
       transform="translate(223.05679,452.58261)"
       style="fill:url(#SVGID_13_)"
       id="polyline6283"
       points="159.047,7.605 157.646,7.605 156.397,8.712 156.397,7.605 155.065,7.605 155.065,12.465    156.397,12.465 156.397,9.009 159.664,12.465 161.536,12.465 157.873,8.64 159.047,7.605  " />
    <path
       style="fill:url(#linearGradient6509)"
       id="path6292"
       d="m 379.45379,458.07261 h -1.332 v 2.115 h 1.332 v -2.115 m 5.049,0 h -1.413 l -2.387,2.115 h 1.4 l 2.4,-2.115" />
    <path
       style="fill:url(#linearGradient6506)"
       id="path6301"
       d="m 392.98579,460.18761 h -1.521 c 0.242,0.429 0.346,0.92 0.346,1.377 0,1.17 -0.675,2.556 -2.637,2.556 h -1.602 v -3.933 h -1.323 v 4.86 h 2.925 c 2.007,0 4.05,-0.909 4.05,-3.483 0,-0.526 -0.085,-0.982 -0.238,-1.377" />
    <path
       style="fill:url(#linearGradient6503)"
       id="path6310"
       d="m 389.17379,458.07261 h -2.925 v 2.115 h 1.323 v -1.188 h 1.602 c 1.195,0 1.913,0.518 2.291,1.188 h 1.521 c -0.596,-1.534 -2.215,-2.115 -3.812,-2.115" />
    <polyline
       transform="translate(223.05679,452.58261)"
       style="fill:url(#SVGID_17_)"
       id="polyline6319"
       points="173.623,7.605 172.291,7.605 172.291,12.465 178.429,12.465 178.429,11.583    173.623,11.583 173.623,9.369 176.845,9.369 176.845,8.479 173.623,8.479 173.623,7.605  " />
    <polyline
       transform="translate(223.05679,452.58261)"
       style="fill:url(#SVGID_18_)"
       id="polyline6328"
       points="178.375,5.49 172.291,5.49 172.291,7.605 173.623,7.605 173.623,6.363 178.375,6.363    178.375,5.49  " />
    <polyline
       transform="translate(223.05679,452.58261)"
       style="fill:url(#SVGID_19_)"
       id="polyline6337"
       points="187.897,7.605 186.709,7.605 186.709,9.945 184.162,9.945 186.348,7.605 185.308,7.605    183.19,9.945 183.19,10.746 186.709,10.746 186.709,12.465 187.897,12.465 187.897,10.746 188.815,10.746 188.815,9.945    187.897,9.945 187.897,7.605  " />
    <polyline
       transform="translate(223.05679,452.58261)"
       style="fill:url(#SVGID_20_)"
       id="polyline6346"
       points="187.897,5.49 187.222,5.49 185.308,7.605 186.348,7.605 186.709,7.218 186.709,7.605    187.897,7.605 187.897,5.49  " />
    <path
       style="fill:url(#linearGradient6496)"
       id="path6355"
       d="m 413.37479,463.95861 c -0.351,0 -0.657,0.288 -0.657,0.639 0,0.36 0.306,0.639 0.657,0.639 0.36,0 0.648,-0.279 0.648,-0.63 0,-0.36 -0.288,-0.648 -0.648,-0.648" />
    <path
       style="fill:url(#linearGradient6493)"
       id="path6364"
       d="m 419.81879,460.18761 h -1.273 c -0.167,0.812 -0.983,0.991 -1.584,0.991 -0.088,0 -0.172,-0.003 -0.248,-0.01 v 0.72 c 1.548,0.054 1.881,0.783 1.881,1.377 0,0.639 -0.504,1.071 -1.584,1.071 -0.81,0 -1.764,-0.54 -2.214,-0.855 v 0.927 c 0.54,0.306 1.071,0.774 2.43,0.774 1.008,0 2.7,-0.36 2.7,-1.89 0,-1.197 -0.855,-1.62 -1.467,-1.818 0.437,-0.153 1.207,-0.424 1.359,-1.287" />
    <path
       style="fill:url(#linearGradient6490)"
       id="path6373"
       d="m 417.30779,457.92861 c -1.134,0 -1.953,0.432 -2.34,0.603 v 1.017 c 0.504,-0.351 1.107,-0.774 2.043,-0.774 1.161,0 1.566,0.612 1.566,1.098 0,0.115 -0.011,0.219 -0.031,0.315 h 1.273 c 0.017,-0.098 0.027,-0.202 0.027,-0.315 0,-1.413 -1.602,-1.944 -2.538,-1.944" />
    <polygon
       transform="translate(223.05679,452.58261)"
       style="fill:#ffffff"
       id="polygon6375"
       points="8.974,7.643 12.464,7.643 12.464,8.662 8.974,8.662 8.974,12.212 7.451,12.212 7.451,4.212 14.227,4.212 14.227,5.22 8.974,5.22 " />
    <path
       style="fill:#ffffff"
       id="path6377"
       d="m 240.97079,459.58961 c -0.54,0 -1.092,0.156 -1.332,0.647 v 4.558 h -1.463 v -6.08 h 1.463 v 0.443 c 0.372,-0.324 0.924,-0.6 1.751,-0.624 v 1.079 c -0.132,-0.011 -0.276,-0.023 -0.419,-0.023 z" />
    <path
       style="fill:#ffffff"
       id="path6379"
       d="m 244.04279,461.57961 v 0.181 c 0,2.122 1.367,2.398 1.859,2.398 0.84,0 1.751,-0.336 2.195,-0.684 v 0.972 c -0.336,0.191 -1.091,0.539 -2.195,0.539 -2.291,0 -3.394,-1.522 -3.394,-3.226 0,-1.704 1.164,-3.227 3.31,-3.227 1.667,0 2.747,1.343 2.747,3.046 h -4.522 z m 3.142,-0.839 c 0,-0.756 -0.408,-1.38 -1.283,-1.38 -0.419,0 -1.439,0.192 -1.763,1.488 h 3.046 v -0.108 z" />
    <path
       style="fill:#ffffff"
       id="path6381"
       d="m 251.42279,461.57961 v 0.181 c 0,2.122 1.367,2.398 1.859,2.398 0.84,0 1.751,-0.336 2.195,-0.684 v 0.972 c -0.336,0.191 -1.091,0.539 -2.195,0.539 -2.291,0 -3.394,-1.522 -3.394,-3.226 0,-1.704 1.164,-3.227 3.31,-3.227 1.667,0 2.747,1.343 2.747,3.046 h -4.522 z m 3.142,-0.839 c 0,-0.756 -0.408,-1.38 -1.283,-1.38 -0.419,0 -1.439,0.192 -1.763,1.488 h 3.046 v -0.108 z" />
  </g>
</svg>
