<?xml version="1.0" encoding="UTF-8" standalone="no"?>
<!-- Created with Inkscape (http://www.inkscape.org/) -->

<svg
   xmlns:dc="http://purl.org/dc/elements/1.1/"
   xmlns:cc="http://creativecommons.org/ns#"
   xmlns:rdf="http://www.w3.org/1999/02/22-rdf-syntax-ns#"
   xmlns:svg="http://www.w3.org/2000/svg"
   xmlns="http://www.w3.org/2000/svg"
   xmlns:xlink="http://www.w3.org/1999/xlink"
   xmlns:sodipodi="http://sodipodi.sourceforge.net/DTD/sodipodi-0.dtd"
   xmlns:inkscape="http://www.inkscape.org/namespaces/inkscape"
   width="203.936"
   height="0.34"
   id="svg13005"
   version="1.1"
   inkscape:version="0.47pre3 r22311"
   sodipodi:docname="Nouveau document 35">
  <defs
     id="defs13007">
    <inkscape:perspective
       sodipodi:type="inkscape:persp3d"
       inkscape:vp_x="0 : 526.18109 : 1"
       inkscape:vp_y="0 : 1000 : 0"
       inkscape:vp_z="744.09448 : 526.18109 : 1"
       inkscape:persp3d-origin="372.04724 : 350.78739 : 1"
       id="perspective13013" />
    <inkscape:perspective
       id="perspective12926"
       inkscape:persp3d-origin="0.5 : 0.33333333 : 1"
       inkscape:vp_z="1 : 0.5 : 1"
       inkscape:vp_y="0 : 1000 : 0"
       inkscape:vp_x="0 : 0.5 : 1"
       sodipodi:type="inkscape:persp3d" />
    <linearGradient
       inkscape:collect="always"
       xlink:href="#SVGID_23_"
       id="linearGradient11112"
       gradientUnits="userSpaceOnUse"
       gradientTransform="matrix(-3.49691e-7,-8,-8,3.49691e-7,4088.3257,1612.1775)"
       x1="151.9268"
       y1="437.79391"
       x2="152.9268"
       y2="437.79391" />
    <linearGradient
       gradientTransform="matrix(-3.49691e-7,-8,-8,3.49691e-7,3696.6975,1222.452)"
       y2="437.79391"
       x2="152.9268"
       y1="437.79391"
       x1="151.9268"
       gradientUnits="userSpaceOnUse"
       id="SVGID_23_">
      <stop
         id="stop10989"
         style="stop-color:#B5DCF0"
         offset="0" />
      <stop
         id="stop10991"
         style="stop-color:#B6C2CB"
         offset="1" />
    </linearGradient>
    <linearGradient
       inkscape:collect="always"
       xlink:href="#SVGID_22_"
       id="linearGradient11115"
       gradientUnits="userSpaceOnUse"
       gradientTransform="matrix(-7.63642e-7,-17.4701,-17.4701,7.63642e-7,8234.2171,3069.902)"
       x1="151.9268"
       y1="437.793"
       x2="152.9268"
       y2="437.793" />
    <linearGradient
       gradientTransform="matrix(-7.63642e-7,-17.4701,-17.4701,7.63642e-7,7842.5889,2680.1765)"
       y2="437.793"
       x2="152.9268"
       y1="437.793"
       x1="151.9268"
       gradientUnits="userSpaceOnUse"
       id="SVGID_22_">
      <stop
         id="stop10982"
         style="stop-color:#B5DCF0"
         offset="0" />
      <stop
         id="stop10984"
         style="stop-color:#B6C2CB"
         offset="1" />
    </linearGradient>
    <linearGradient
       inkscape:collect="always"
       xlink:href="#SVGID_21_"
       id="linearGradient11118"
       gradientUnits="userSpaceOnUse"
       gradientTransform="matrix(-7.649496e-7,-17.5,-17.5,7.649496e-7,8243.3255,3074.4616)"
       x1="151.9268"
       y1="437.79391"
       x2="152.9268"
       y2="437.79391" />
    <linearGradient
       gradientTransform="matrix(-7.649496e-7,-17.5,-17.5,7.649496e-7,7851.6973,2684.7361)"
       y2="437.79391"
       x2="152.9268"
       y1="437.79391"
       x1="151.9268"
       gradientUnits="userSpaceOnUse"
       id="SVGID_21_">
      <stop
         id="stop10975"
         style="stop-color:#B5DCF0"
         offset="0" />
      <stop
         id="stop10977"
         style="stop-color:#B6C2CB"
         offset="1" />
    </linearGradient>
    <linearGradient
       gradientTransform="matrix(-3.49691e-7,-8,-8,3.49691e-7,3688.9475,1222.452)"
       y2="437.793"
       x2="152.9268"
       y1="437.793"
       x1="151.9268"
       gradientUnits="userSpaceOnUse"
       id="SVGID_20_">
      <stop
         id="stop10968"
         style="stop-color:#B5DCF0"
         offset="0" />
      <stop
         id="stop10970"
         style="stop-color:#B6C2CB"
         offset="1" />
    </linearGradient>
    <linearGradient
       gradientTransform="matrix(-7.636053e-7,-17.4692,-17.4692,7.636053e-7,7833.9229,2680.0376)"
       y2="437.793"
       x2="152.9268"
       y1="437.793"
       x1="151.9268"
       gradientUnits="userSpaceOnUse"
       id="SVGID_19_">
      <stop
         id="stop10961"
         style="stop-color:#B5DCF0"
         offset="0" />
      <stop
         id="stop10963"
         style="stop-color:#B6C2CB"
         offset="1" />
    </linearGradient>
    <linearGradient
       gradientTransform="matrix(-3.49691e-7,-8,-8,3.49691e-7,3677.6741,1222.452)"
       y2="437.793"
       x2="152.9268"
       y1="437.793"
       x1="151.9268"
       gradientUnits="userSpaceOnUse"
       id="SVGID_18_">
      <stop
         id="stop10954"
         style="stop-color:#B5DCF0"
         offset="0" />
      <stop
         id="stop10956"
         style="stop-color:#B6C2CB"
         offset="1" />
    </linearGradient>
    <linearGradient
       gradientTransform="matrix(-7.636053e-7,-17.4692,-17.4692,7.636053e-7,7823.2822,2680.0376)"
       y2="437.793"
       x2="152.9268"
       y1="437.793"
       x1="151.9268"
       gradientUnits="userSpaceOnUse"
       id="SVGID_17_">
      <stop
         id="stop10947"
         style="stop-color:#B5DCF0"
         offset="0" />
      <stop
         id="stop10949"
         style="stop-color:#B6C2CB"
         offset="1" />
    </linearGradient>
    <linearGradient
       inkscape:collect="always"
       xlink:href="#SVGID_16_"
       id="linearGradient11125"
       gradientUnits="userSpaceOnUse"
       gradientTransform="matrix(-3.49691e-7,-8,-8,3.49691e-7,4060.5366,1612.1775)"
       x1="151.9268"
       y1="437.79391"
       x2="152.9268"
       y2="437.79391" />
    <linearGradient
       gradientTransform="matrix(-3.49691e-7,-8,-8,3.49691e-7,3668.9084,1222.452)"
       y2="437.79391"
       x2="152.9268"
       y1="437.79391"
       x1="151.9268"
       gradientUnits="userSpaceOnUse"
       id="SVGID_16_">
      <stop
         id="stop10940"
         style="stop-color:#B5DCF0"
         offset="0" />
      <stop
         id="stop10942"
         style="stop-color:#B6C2CB"
         offset="1" />
    </linearGradient>
    <linearGradient
       inkscape:collect="always"
       xlink:href="#SVGID_15_"
       id="linearGradient11128"
       gradientUnits="userSpaceOnUse"
       gradientTransform="matrix(-7.636053e-7,-17.4692,-17.4692,7.636053e-7,8206.2229,3069.7631)"
       x1="151.9268"
       y1="437.793"
       x2="152.9268"
       y2="437.793" />
    <linearGradient
       gradientTransform="matrix(-7.636053e-7,-17.4692,-17.4692,7.636053e-7,7814.5947,2680.0376)"
       y2="437.793"
       x2="152.9268"
       y1="437.793"
       x1="151.9268"
       gradientUnits="userSpaceOnUse"
       id="SVGID_15_">
      <stop
         id="stop10933"
         style="stop-color:#B5DCF0"
         offset="0" />
      <stop
         id="stop10935"
         style="stop-color:#B6C2CB"
         offset="1" />
    </linearGradient>
    <linearGradient
       inkscape:collect="always"
       xlink:href="#SVGID_14_"
       id="linearGradient11131"
       gradientUnits="userSpaceOnUse"
       gradientTransform="matrix(-3.49691e-7,-8,-8,3.49691e-7,4052.2241,1612.1775)"
       x1="151.9268"
       y1="437.793"
       x2="152.9268"
       y2="437.793" />
    <linearGradient
       gradientTransform="matrix(-3.49691e-7,-8,-8,3.49691e-7,3660.5959,1222.452)"
       y2="437.793"
       x2="152.9268"
       y1="437.793"
       x1="151.9268"
       gradientUnits="userSpaceOnUse"
       id="SVGID_14_">
      <stop
         id="stop10926"
         style="stop-color:#B5DCF0"
         offset="0" />
      <stop
         id="stop10928"
         style="stop-color:#B6C2CB"
         offset="1" />
    </linearGradient>
    <linearGradient
       gradientTransform="matrix(-7.636053e-7,-17.4692,-17.4692,7.636053e-7,7806.2197,2680.0376)"
       y2="437.793"
       x2="152.9268"
       y1="437.793"
       x1="151.9268"
       gradientUnits="userSpaceOnUse"
       id="SVGID_13_">
      <stop
         id="stop10919"
         style="stop-color:#B5DCF0"
         offset="0" />
      <stop
         id="stop10921"
         style="stop-color:#B6C2CB"
         offset="1" />
    </linearGradient>
    <linearGradient
       inkscape:collect="always"
       xlink:href="#SVGID_6_"
       id="linearGradient11167"
       gradientUnits="userSpaceOnUse"
       gradientTransform="matrix(-3.49691e-7,-8,-8,3.49691e-7,3996.6773,1612.1775)"
       x1="151.9268"
       y1="437.793"
       x2="152.9268"
       y2="437.793" />
    <linearGradient
       gradientTransform="matrix(-3.49691e-7,-8,-8,3.49691e-7,3605.0491,1222.452)"
       y2="437.793"
       x2="152.9268"
       y1="437.793"
       x1="151.9268"
       gradientUnits="userSpaceOnUse"
       id="SVGID_6_">
      <stop
         id="stop10826"
         style="stop-color:#098BCC"
         offset="0" />
      <stop
         id="stop10828"
         style="stop-color:#0C3453"
         offset="1" />
    </linearGradient>
    <linearGradient
       inkscape:collect="always"
       xlink:href="#SVGID_5_"
       id="linearGradient11170"
       gradientUnits="userSpaceOnUse"
       gradientTransform="matrix(-7.642141e-7,-17.4832,-17.4832,7.642141e-7,7756.7065,2682.1726)"
       x1="151.9268"
       y1="437.793"
       x2="152.9268"
       y2="437.793" />
    <linearGradient
       gradientTransform="matrix(-7.642141e-7,-17.4832,-17.4832,7.642141e-7,7756.7065,2682.1726)"
       y2="437.793"
       x2="152.9268"
       y1="437.793"
       x1="151.9268"
       gradientUnits="userSpaceOnUse"
       id="SVGID_5_">
      <stop
         id="stop10819"
         style="stop-color:#098BCC"
         offset="0" />
      <stop
         id="stop10821"
         style="stop-color:#0C3453"
         offset="1" />
    </linearGradient>
    <linearGradient
       y2="437.793"
       x2="152.9268"
       y1="437.793"
       x1="151.9268"
       gradientTransform="matrix(-7.642141e-7,-17.4832,-17.4832,7.642141e-7,8148.3347,3071.8981)"
       gradientUnits="userSpaceOnUse"
       id="linearGradient13003"
       xlink:href="#SVGID_5_"
       inkscape:collect="always" />
  </defs>
  <sodipodi:namedview
     id="base"
     pagecolor="#ffffff"
     bordercolor="#666666"
     borderopacity="1.0"
     inkscape:pageopacity="0.0"
     inkscape:pageshadow="2"
     inkscape:zoom="1.4"
     inkscape:cx="-17.31521"
     inkscape:cy="-125.93471"
     inkscape:document-units="px"
     inkscape:current-layer="layer1"
     showgrid="false"
     inkscape:window-width="1276"
     inkscape:window-height="742"
     inkscape:window-x="0"
     inkscape:window-y="0"
     inkscape:window-maximized="1" />
  <metadata
     id="metadata13010">
    <rdf:RDF>
      <cc:Work
         rdf:about="">
        <dc:format>image/svg+xml</dc:format>
        <dc:type
           rdf:resource="http://purl.org/dc/dcmitype/StillImage" />
        <dc:title></dc:title>
      </cc:Work>
    </rdf:RDF>
  </metadata>
  <g
     inkscape:label="Calque 1"
     inkscape:groupmode="layer"
     id="layer1"
     transform="translate(-392.31521,-406.08747)">
    <path
       style="fill:url(#linearGradient13003)"
       id="path10823"
       d="m 549.27421,397.33047 h -1.25 v 1.107 l 1.25,-1.107 m 10.762,0 h -3.893 v 3.933 h 1.602 c 1.962,0 2.637,-1.386 2.637,-2.556 0,-0.457 -0.104,-0.948 -0.346,-1.377 m 18.301,0 h -0.361 l -2.186,2.34 h 2.547 v -2.34 m 3.609,5.049 c -0.351,0 -0.657,-0.279 -0.657,-0.639 0,-0.351 0.306,-0.639 0.657,-0.639 0.36,0 0.648,0.288 0.648,0.648 0,0.351 -0.288,0.63 -0.648,0.63 m 14.103,-5.049 h -7.659 c -0.152,0.863 -0.922,1.133 -1.359,1.287 0.612,0.198 1.467,0.621 1.467,1.818 0,1.53 -1.692,1.89 -2.7,1.89 -1.359,0 -1.89,-0.468 -2.43,-0.774 v -0.927 c 0.45,0.315 1.404,0.855 2.214,0.855 1.08,0 1.584,-0.432 1.584,-1.071 0,-0.594 -0.333,-1.323 -1.881,-1.377 v -0.72 l 0.248,0.01 c 0.601,0 1.418,-0.179 1.584,-0.991 h -7.592 v 2.34 h 0.918 v 0.801 h -0.918 v 1.719 h -1.188 v -1.719 h -3.519 v -0.801 l 2.118,-2.34 h -11.685 v 0.873 h 3.222 v 0.891 h -3.222 v 2.214 h 4.806 v 0.882 h -6.138 v -4.86 h -2.362 c 0.153,0.394 0.238,0.851 0.238,1.377 0,2.574 -2.043,3.483 -4.05,3.483 h -2.925 v -4.86 h -4.145 l -1.174,1.035 3.663,3.825 h -1.872 l -3.267,-3.456 v 3.456 h -1.332 v -4.86 h -154.098 v 8.883 h 0.036 203.418 v -8.883" />
    <path
       style="fill:url(#linearGradient11167)"
       id="path10830"
       d="m 578.33721,396.94347 -0.361,0.387 h 0.361 v -0.387 m -20.592,-0.801 h -1.602 v 1.188 h 3.893 c -0.378,-0.669 -1.095,-1.188 -2.291,-1.188 m 38.331,-6.272 h -0.126 -203.238 -0.126 v 7.461 h 0.009 154.098 v -2.116 h 1.332 v 2.115 h 1.25 l 2.387,-2.115 h 1.413 l -2.399,2.115 h 4.145 v -2.115 h 2.925 c 1.597,0 3.216,0.581 3.812,2.115 h 2.362 v -2.115 h 6.084 v 0.873 h -4.752 v 1.242 h 11.685 l 1.915,-2.115 h 0.675 v 2.115 h 7.592 c 0.02,-0.096 0.031,-0.201 0.031,-0.315 0,-0.486 -0.405,-1.098 -1.566,-1.098 -0.936,0 -1.539,0.423 -2.043,0.774 v -1.017 c 0.387,-0.171 1.206,-0.603 2.34,-0.603 0.936,0 2.538,0.531 2.538,1.944 0,0.113 -0.01,0.218 -0.027,0.315 h 7.659 0.027 v -7.46" />
    <polyline
       transform="translate(391.62821,389.72547)"
       style="fill:#808dc6"
       id="polyline10832"
       points="204.623,16.362 0.687,16.362 0.687,16.702 204.623,16.702 204.623,16.362  " />
    <polyline
       transform="translate(391.62821,389.72547)"
       style="fill:#808dc6"
       id="polyline10834"
       points="204.623,0 0.687,0 0.687,0.299 204.623,0.299 204.623,0  " />
    <polyline
       transform="translate(391.62821,389.72547)"
       style="fill:#808dc6"
       id="polyline10836"
       points="0.962,16.382 0.962,0 0.691,0 0.691,16.382 0.962,16.382  " />
    <polyline
       transform="translate(391.62821,389.72547)"
       style="fill:#808dc6"
       id="polyline10838"
       points="204.628,16.695 204.628,0.313 204.358,0.313 204.357,16.695 204.628,16.695  " />
    <polyline
       transform="translate(391.62821,389.72547)"
       style="fill:url(#SVGID_13_)"
       id="polyline10923"
       points="159.047,7.605 157.646,7.605 156.397,8.712 156.397,7.605 155.065,7.605 155.065,12.465    156.397,12.465 156.397,9.009 159.664,12.465 161.536,12.465 157.873,8.64 159.047,7.605  " />
    <path
       style="fill:url(#linearGradient11131)"
       id="path10930"
       d="m 548.02521,395.21547 h -1.332 v 2.115 h 1.332 v -2.115 m 5.049,0 h -1.413 l -2.387,2.115 h 1.4 l 2.4,-2.115" />
    <path
       style="fill:url(#linearGradient11128)"
       id="path10937"
       d="m 561.55721,397.33047 h -1.521 c 0.242,0.429 0.346,0.92 0.346,1.377 0,1.17 -0.675,2.556 -2.637,2.556 h -1.602 v -3.933 h -1.323 v 4.86 h 2.925 c 2.007,0 4.05,-0.909 4.05,-3.483 0,-0.526 -0.085,-0.982 -0.238,-1.377" />
    <path
       style="fill:url(#linearGradient11125)"
       id="path10944"
       d="m 557.74521,395.21547 h -2.925 v 2.115 h 1.323 v -1.188 h 1.602 c 1.195,0 1.913,0.518 2.291,1.188 h 1.521 c -0.596,-1.534 -2.215,-2.115 -3.812,-2.115" />
    <polyline
       transform="translate(391.62821,389.72547)"
       style="fill:url(#SVGID_17_)"
       id="polyline10951"
       points="173.623,7.605 172.291,7.605 172.291,12.465 178.429,12.465 178.429,11.583    173.623,11.583 173.623,9.369 176.845,9.369 176.845,8.479 173.623,8.479 173.623,7.605  " />
    <polyline
       transform="translate(391.62821,389.72547)"
       style="fill:url(#SVGID_18_)"
       id="polyline10958"
       points="178.375,5.49 172.291,5.49 172.291,7.605 173.623,7.605 173.623,6.363 178.375,6.363    178.375,5.49  " />
    <polyline
       transform="translate(391.62821,389.72547)"
       style="fill:url(#SVGID_19_)"
       id="polyline10965"
       points="187.897,7.605 186.709,7.605 186.709,9.945 184.162,9.945 186.348,7.605 185.308,7.605    183.19,9.945 183.19,10.746 186.709,10.746 186.709,12.465 187.897,12.465 187.897,10.746 188.815,10.746 188.815,9.945    187.897,9.945 187.897,7.605  " />
    <polyline
       transform="translate(391.62821,389.72547)"
       style="fill:url(#SVGID_20_)"
       id="polyline10972"
       points="187.897,5.49 187.222,5.49 185.308,7.605 186.348,7.605 186.709,7.218 186.709,7.605    187.897,7.605 187.897,5.49  " />
    <path
       style="fill:url(#linearGradient11118)"
       id="path10979"
       d="m 581.94621,401.10147 c -0.351,0 -0.657,0.288 -0.657,0.639 0,0.36 0.306,0.639 0.657,0.639 0.36,0 0.648,-0.279 0.648,-0.63 0,-0.36 -0.288,-0.648 -0.648,-0.648" />
    <path
       style="fill:url(#linearGradient11115)"
       id="path10986"
       d="m 588.39021,397.33047 h -1.273 c -0.167,0.812 -0.983,0.991 -1.584,0.991 l -0.248,-0.01 v 0.72 c 1.548,0.054 1.881,0.783 1.881,1.377 0,0.639 -0.504,1.071 -1.584,1.071 -0.81,0 -1.764,-0.54 -2.214,-0.855 v 0.927 c 0.54,0.306 1.071,0.774 2.43,0.774 1.008,0 2.7,-0.36 2.7,-1.89 0,-1.197 -0.855,-1.62 -1.467,-1.818 0.437,-0.153 1.207,-0.424 1.359,-1.287" />
    <path
       style="fill:url(#linearGradient11112)"
       id="path10993"
       d="m 585.87921,395.07147 c -1.134,0 -1.953,0.432 -2.34,0.603 v 1.017 c 0.504,-0.351 1.107,-0.774 2.043,-0.774 1.161,0 1.566,0.612 1.566,1.098 0,0.115 -0.011,0.219 -0.031,0.315 h 1.273 c 0.017,-0.098 0.027,-0.202 0.027,-0.315 0,-1.413 -1.602,-1.944 -2.538,-1.944" />
    <path
       style="fill:#ffffff"
       id="path10995"
       d="m 402.67621,399.30347 h -2.531 v 2.447 h -1.523 v -8 h 4.461 c 1.919,0 3.154,0.636 3.154,2.603 10e-4,2.351 -1.415,2.95 -3.561,2.95 z m 0.024,-4.545 h -2.555 v 3.538 h 2.099 c 1.631,0 2.278,-0.372 2.278,-1.943 0.001,-1.056 -0.659,-1.595 -1.822,-1.595 z" />
    <path
       style="fill:#ffffff"
       id="path10997"
       d="m 411.05221,401.94247 c -2.291,0 -3.394,-1.523 -3.394,-3.226 0,-1.703 1.104,-3.227 3.394,-3.227 2.291,0 3.394,1.523 3.394,3.227 0,1.704 -1.103,3.226 -3.394,3.226 z m 0,-5.625 c -0.492,0 -1.859,0.276 -1.859,2.399 0,2.123 1.367,2.398 1.859,2.398 0.492,0 1.859,-0.276 1.859,-2.398 0,-2.123 -1.367,-2.399 -1.859,-2.399 z" />
    <polygon
       transform="translate(391.62821,389.72547)"
       style="fill:#ffffff"
       id="polygon10999"
       points="31.458,10.418 32.958,5.944 34.025,5.944 31.926,12.025 30.535,12.025 29.108,7.54 27.573,12.025 26.217,12.025 24.13,5.944 25.605,5.944 27.105,10.418 28.604,5.944 29.959,5.944 " />
    <path
       style="fill:#ffffff"
       id="path11001"
       d="m 428.35721,398.53647 v 0.18 c 0,2.123 1.367,2.398 1.859,2.398 0.84,0 1.751,-0.336 2.195,-0.684 v 0.972 c -0.336,0.192 -1.091,0.54 -2.195,0.54 -2.291,0 -3.394,-1.523 -3.394,-3.226 0,-1.703 1.164,-3.227 3.31,-3.227 1.667,0 2.747,1.343 2.747,3.046 l -4.522,0.001 0,0 z m 3.143,-0.84 c 0,-0.756 -0.408,-1.379 -1.283,-1.379 -0.419,0 -1.439,0.192 -1.763,1.487 h 3.046 v -0.108 z" />
    <path
       style="fill:#ffffff"
       id="path11003"
       d="m 437.28521,396.54547 c -0.54,0 -1.092,0.156 -1.332,0.647 v 4.558 h -1.463 v -6.081 h 1.463 v 0.444 c 0.372,-0.324 0.924,-0.6 1.751,-0.624 v 1.08 c -0.132,-0.012 -0.276,-0.024 -0.419,-0.024 z" />
    <path
       style="fill:#ffffff"
       id="path11005"
       d="m 443.65521,399.30347 h -2.531 v 2.447 h -1.523 v -8 h 4.461 c 1.919,0 3.154,0.636 3.154,2.603 0.001,2.351 -1.414,2.95 -3.561,2.95 z m 0.024,-4.545 h -2.555 v 3.538 h 2.099 c 1.631,0 2.278,-0.372 2.278,-1.943 10e-4,-1.056 -0.659,-1.595 -1.822,-1.595 z" />
    <path
       style="fill:#ffffff"
       id="path11007"
       d="m 451.25321,401.94247 c -1.308,0 -2.663,-0.516 -2.663,-2.039 0,-1.823 1.691,-2.195 2.842,-2.195 0.624,0 1.151,0.084 1.463,0.156 -0.048,-0.768 0.096,-1.547 -1.607,-1.547 -0.576,0 -1.547,0.312 -1.955,0.54 v -0.972 c 0.384,-0.156 1.175,-0.396 2.015,-0.396 2.555,0 3.01,1.176 3.01,3.07 v 2.807 c -0.839,0.336 -2.014,0.576 -3.105,0.576 z m 1.643,-3.238 c -0.336,-0.084 -0.948,-0.168 -1.224,-0.168 -0.887,0 -1.547,0.348 -1.547,1.319 0,0.875 0.792,1.248 1.475,1.248 0.3,0 0.804,-0.048 1.295,-0.204 l 10e-4,-2.195 0,0 z" />
    <path
       style="fill:#ffffff"
       id="path11009"
       d="m 459.41221,401.94247 c -2.291,0 -3.394,-1.523 -3.394,-3.226 0,-1.703 1.104,-3.227 3.394,-3.227 0.852,0 1.571,0.36 1.907,0.552 v 0.972 c -0.42,-0.396 -1.067,-0.696 -1.907,-0.696 -0.492,0 -1.859,0.276 -1.859,2.399 0,2.123 1.367,2.398 1.859,2.398 0.84,0 1.487,-0.288 1.907,-0.684 v 0.972 c -0.336,0.192 -1.056,0.54 -1.907,0.54 z" />
    <polygon
       transform="translate(391.62821,389.72547)"
       style="fill:#ffffff"
       id="polygon11011"
       points="77.274,12.025 75.367,12.025 72.717,8.918 72.717,12.025 71.254,12.025 71.254,3.461 72.717,3.461 72.717,8.559 75.775,5.944 77.022,5.944 74.18,8.403 " />
  </g>
</svg>
