<?xml version="1.0" encoding="UTF-8" standalone="no"?>
<!-- Created with Inkscape (http://www.inkscape.org/) -->

<svg
   xmlns:dc="http://purl.org/dc/elements/1.1/"
   xmlns:cc="http://creativecommons.org/ns#"
   xmlns:rdf="http://www.w3.org/1999/02/22-rdf-syntax-ns#"
   xmlns:svg="http://www.w3.org/2000/svg"
   xmlns="http://www.w3.org/2000/svg"
   xmlns:xlink="http://www.w3.org/1999/xlink"
   xmlns:sodipodi="http://sodipodi.sourceforge.net/DTD/sodipodi-0.dtd"
   xmlns:inkscape="http://www.inkscape.org/namespaces/inkscape"
   width="203.94099"
   height="16.702"
   id="svg9992"
   version="1.1"
   inkscape:version="0.47 r22583"
   sodipodi:docname="toppwp.svg">
  <defs
     id="defs9994">
    <inkscape:perspective
       sodipodi:type="inkscape:persp3d"
       inkscape:vp_x="0 : 526.18109 : 1"
       inkscape:vp_y="0 : 1000 : 0"
       inkscape:vp_z="744.09448 : 526.18109 : 1"
       inkscape:persp3d-origin="372.04724 : 350.78739 : 1"
       id="perspective10000" />
    <inkscape:perspective
       id="perspective9919"
       inkscape:persp3d-origin="0.5 : 0.33333333 : 1"
       inkscape:vp_z="1 : 0.5 : 1"
       inkscape:vp_y="0 : 1000 : 0"
       inkscape:vp_x="0 : 0.5 : 1"
       sodipodi:type="inkscape:persp3d" />
    <linearGradient
       inkscape:collect="always"
       xlink:href="#SVGID_27_"
       id="linearGradient9825"
       gradientUnits="userSpaceOnUse"
       gradientTransform="matrix(-3.49691e-7,-8,-8,3.49691e-7,3995.7106,1756.5643)"
       x1="152.83299"
       y1="426.57321"
       x2="153.83299"
       y2="426.57321" />
    <linearGradient
       gradientTransform="matrix(-3.49691e-7,-8,-8,3.49691e-7,3606.9395,1229.696)"
       y2="426.57321"
       x2="153.83299"
       y1="426.57321"
       x1="152.83299"
       gradientUnits="userSpaceOnUse"
       id="SVGID_27_">
      <stop
         id="stop9702"
         style="stop-color:#B5DCF0"
         offset="0" />
      <stop
         id="stop9704"
         style="stop-color:#B6C2CB"
         offset="1" />
    </linearGradient>
    <linearGradient
       inkscape:collect="always"
       xlink:href="#SVGID_26_"
       id="linearGradient9828"
       gradientUnits="userSpaceOnUse"
       gradientTransform="matrix(-7.649496e-7,-17.5,-17.5,7.649496e-7,8156.9972,3227.4711)"
       x1="152.83299"
       y1="432.7959"
       x2="153.83299"
       y2="432.7959" />
    <linearGradient
       gradientTransform="matrix(-7.649496e-7,-17.5,-17.5,7.649496e-7,7768.2261,2700.6028)"
       y2="432.7959"
       x2="153.83299"
       y1="432.7959"
       x1="152.83299"
       gradientUnits="userSpaceOnUse"
       id="SVGID_26_">
      <stop
         id="stop9695"
         style="stop-color:#B5DCF0"
         offset="0" />
      <stop
         id="stop9697"
         style="stop-color:#B6C2CB"
         offset="1" />
    </linearGradient>
    <linearGradient
       inkscape:collect="always"
       xlink:href="#SVGID_25_"
       id="linearGradient9831"
       gradientUnits="userSpaceOnUse"
       gradientTransform="matrix(-7.649496e-7,-17.5,-17.5,7.649496e-7,8156.9972,3227.4711)"
       x1="152.83299"
       y1="433.02341"
       x2="153.83299"
       y2="433.02341" />
    <linearGradient
       gradientTransform="matrix(-7.649496e-7,-17.5,-17.5,7.649496e-7,7768.2261,2700.6028)"
       y2="433.02341"
       x2="153.83299"
       y1="433.02341"
       x1="152.83299"
       gradientUnits="userSpaceOnUse"
       id="SVGID_25_">
      <stop
         id="stop9688"
         style="stop-color:#B5DCF0"
         offset="0" />
      <stop
         id="stop9690"
         style="stop-color:#B6C2CB"
         offset="1" />
    </linearGradient>
    <linearGradient
       gradientTransform="matrix(-3.49691e-7,-8,-8,3.49691e-7,3606.9395,1229.696)"
       y2="427.54199"
       x2="153.83299"
       y1="427.54199"
       x1="152.83299"
       gradientUnits="userSpaceOnUse"
       id="SVGID_24_">
      <stop
         id="stop9681"
         style="stop-color:#B5DCF0"
         offset="0" />
      <stop
         id="stop9683"
         style="stop-color:#B6C2CB"
         offset="1" />
    </linearGradient>
    <linearGradient
       gradientTransform="matrix(-7.649496e-7,-17.5,-17.5,7.649496e-7,7768.2261,2700.6028)"
       y2="433.27051"
       x2="153.83299"
       y1="433.27051"
       x1="152.83299"
       gradientUnits="userSpaceOnUse"
       id="SVGID_23_">
      <stop
         id="stop9674"
         style="stop-color:#B5DCF0"
         offset="0" />
      <stop
         id="stop9676"
         style="stop-color:#B6C2CB"
         offset="1" />
    </linearGradient>
    <linearGradient
       gradientTransform="matrix(-3.49691e-7,-8,-8,3.49691e-7,3606.9395,1229.696)"
       y2="428.9502"
       x2="153.83299"
       y1="428.9502"
       x1="152.83299"
       gradientUnits="userSpaceOnUse"
       id="SVGID_22_">
      <stop
         id="stop9667"
         style="stop-color:#B5DCF0"
         offset="0" />
      <stop
         id="stop9669"
         style="stop-color:#B6C2CB"
         offset="1" />
    </linearGradient>
    <linearGradient
       gradientTransform="matrix(-7.649496e-7,-17.5,-17.5,7.649496e-7,7768.2261,2700.6028)"
       y2="433.8779"
       x2="153.83299"
       y1="433.8779"
       x1="152.83299"
       gradientUnits="userSpaceOnUse"
       id="SVGID_21_">
      <stop
         id="stop9660"
         style="stop-color:#B5DCF0"
         offset="0" />
      <stop
         id="stop9662"
         style="stop-color:#B6C2CB"
         offset="1" />
    </linearGradient>
    <linearGradient
       inkscape:collect="always"
       xlink:href="#SVGID_20_"
       id="linearGradient9838"
       gradientUnits="userSpaceOnUse"
       gradientTransform="matrix(-3.49691e-7,-8,-8,3.49691e-7,3995.7106,1756.5643)"
       x1="152.83299"
       y1="430.04791"
       x2="153.83299"
       y2="430.04791" />
    <linearGradient
       gradientTransform="matrix(-3.49691e-7,-8,-8,3.49691e-7,3606.9395,1229.696)"
       y2="430.04791"
       x2="153.83299"
       y1="430.04791"
       x1="152.83299"
       gradientUnits="userSpaceOnUse"
       id="SVGID_20_">
      <stop
         id="stop9653"
         style="stop-color:#B5DCF0"
         offset="0" />
      <stop
         id="stop9655"
         style="stop-color:#B6C2CB"
         offset="1" />
    </linearGradient>
    <linearGradient
       inkscape:collect="always"
       xlink:href="#SVGID_19_"
       id="linearGradient9841"
       gradientUnits="userSpaceOnUse"
       gradientTransform="matrix(-7.649496e-7,-17.5,-17.5,7.649496e-7,8156.9972,3227.4711)"
       x1="152.83299"
       y1="434.37399"
       x2="153.83299"
       y2="434.37399" />
    <linearGradient
       gradientTransform="matrix(-7.649496e-7,-17.5,-17.5,7.649496e-7,7768.2261,2700.6028)"
       y2="434.37399"
       x2="153.83299"
       y1="434.37399"
       x1="152.83299"
       gradientUnits="userSpaceOnUse"
       id="SVGID_19_">
      <stop
         id="stop9646"
         style="stop-color:#B5DCF0"
         offset="0" />
      <stop
         id="stop9648"
         style="stop-color:#B6C2CB"
         offset="1" />
    </linearGradient>
    <linearGradient
       inkscape:collect="always"
       xlink:href="#SVGID_18_"
       id="linearGradient9844"
       gradientUnits="userSpaceOnUse"
       gradientTransform="matrix(-3.49691e-7,-8,-8,3.49691e-7,3995.7106,1756.5643)"
       x1="152.83299"
       y1="431.08499"
       x2="153.83299"
       y2="431.08499" />
    <linearGradient
       gradientTransform="matrix(-3.49691e-7,-8,-8,3.49691e-7,3606.9395,1229.696)"
       y2="431.08499"
       x2="153.83299"
       y1="431.08499"
       x1="152.83299"
       gradientUnits="userSpaceOnUse"
       id="SVGID_18_">
      <stop
         id="stop9639"
         style="stop-color:#B5DCF0"
         offset="0" />
      <stop
         id="stop9641"
         style="stop-color:#B6C2CB"
         offset="1" />
    </linearGradient>
    <linearGradient
       gradientTransform="matrix(-7.649496e-7,-17.5,-17.5,7.649496e-7,7768.2261,2700.6028)"
       y2="434.85251"
       x2="153.83299"
       y1="434.85251"
       x1="152.83299"
       gradientUnits="userSpaceOnUse"
       id="SVGID_17_">
      <stop
         id="stop9632"
         style="stop-color:#B5DCF0"
         offset="0" />
      <stop
         id="stop9634"
         style="stop-color:#B6C2CB"
         offset="1" />
    </linearGradient>
    <linearGradient
       inkscape:collect="always"
       xlink:href="#SVGID_6_"
       id="linearGradient9892"
       gradientUnits="userSpaceOnUse"
       gradientTransform="matrix(-3.49691e-7,-8,-8,3.49691e-7,3995.7106,1756.5643)"
       x1="152.83299"
       y1="438.0303"
       x2="153.83299"
       y2="438.0303" />
    <linearGradient
       gradientTransform="matrix(-3.49691e-7,-8,-8,3.49691e-7,3606.9395,1229.696)"
       y2="438.0303"
       x2="153.83299"
       y1="438.0303"
       x1="152.83299"
       gradientUnits="userSpaceOnUse"
       id="SVGID_6_">
      <stop
         id="stop9499"
         style="stop-color:#098BCC"
         offset="0" />
      <stop
         id="stop9501"
         style="stop-color:#0C3453"
         offset="1" />
    </linearGradient>
    <linearGradient
       inkscape:collect="always"
       xlink:href="#SVGID_5_"
       id="linearGradient9895"
       gradientUnits="userSpaceOnUse"
       gradientTransform="matrix(-7.649496e-7,-17.5,-17.5,7.649496e-7,7768.2261,2700.6028)"
       x1="152.83299"
       y1="438.0303"
       x2="153.83299"
       y2="438.0303" />
    <linearGradient
       gradientTransform="matrix(-7.649496e-7,-17.5,-17.5,7.649496e-7,7768.2261,2700.6028)"
       y2="438.0303"
       x2="153.83299"
       y1="438.0303"
       x1="152.83299"
       gradientUnits="userSpaceOnUse"
       id="SVGID_5_">
      <stop
         id="stop9492"
         style="stop-color:#098BCC"
         offset="0" />
      <stop
         id="stop9494"
         style="stop-color:#0C3453"
         offset="1" />
    </linearGradient>
    <linearGradient
       y2="438.0303"
       x2="153.83299"
       y1="438.0303"
       x1="152.83299"
       gradientTransform="matrix(-7.649496e-7,-17.5,-17.5,7.649496e-7,8156.9972,3227.4711)"
       gradientUnits="userSpaceOnUse"
       id="linearGradient9990"
       xlink:href="#SVGID_5_"
       inkscape:collect="always" />
    <inkscape:perspective
       id="perspective2991"
       inkscape:persp3d-origin="0.5 : 0.33333333 : 1"
       inkscape:vp_z="1 : 0.5 : 1"
       inkscape:vp_y="0 : 1000 : 0"
       inkscape:vp_x="0 : 0.5 : 1"
       sodipodi:type="inkscape:persp3d" />
    <inkscape:perspective
       id="perspective4265"
       inkscape:persp3d-origin="0.5 : 0.33333333 : 1"
       inkscape:vp_z="1 : 0.5 : 1"
       inkscape:vp_y="0 : 1000 : 0"
       inkscape:vp_x="0 : 0.5 : 1"
       sodipodi:type="inkscape:persp3d" />
    <linearGradient
       gradientTransform="matrix(-3.49691e-7,-8,-8,3.49691e-7,3606.9395,1229.696)"
       y2="427.54199"
       x2="153.83299"
       y1="427.54199"
       x1="152.83299"
       gradientUnits="userSpaceOnUse"
       id="SVGID_24_-7">
      <stop
         id="stop9681-6"
         style="stop-color:#B5DCF0"
         offset="0" />
      <stop
         id="stop9683-5"
         style="stop-color:#B6C2CB"
         offset="1" />
    </linearGradient>
    <linearGradient
       y2="427.54199"
       x2="153.83299"
       y1="427.54199"
       x1="152.83299"
       gradientTransform="matrix(-3.49691e-7,-8,-8,3.49691e-7,3606.9395,1229.696)"
       gradientUnits="userSpaceOnUse"
       id="linearGradient4273"
       xlink:href="#SVGID_24_-7"
       inkscape:collect="always" />
    <inkscape:perspective
       id="perspective4300"
       inkscape:persp3d-origin="0.5 : 0.33333333 : 1"
       inkscape:vp_z="1 : 0.5 : 1"
       inkscape:vp_y="0 : 1000 : 0"
       inkscape:vp_x="0 : 0.5 : 1"
       sodipodi:type="inkscape:persp3d" />
    <linearGradient
       gradientTransform="matrix(-7.649496e-7,-17.5,-17.5,7.649496e-7,7768.2261,2700.6028)"
       y2="433.27051"
       x2="153.83299"
       y1="433.27051"
       x1="152.83299"
       gradientUnits="userSpaceOnUse"
       id="SVGID_23_-9">
      <stop
         id="stop9674-3"
         style="stop-color:#B5DCF0"
         offset="0" />
      <stop
         id="stop9676-7"
         style="stop-color:#B6C2CB"
         offset="1" />
    </linearGradient>
    <linearGradient
       y2="433.27051"
       x2="153.83299"
       y1="433.27051"
       x1="152.83299"
       gradientTransform="matrix(-7.649496e-7,-17.5,-17.5,7.649496e-7,7768.2261,2700.6028)"
       gradientUnits="userSpaceOnUse"
       id="linearGradient4308"
       xlink:href="#SVGID_23_-9"
       inkscape:collect="always" />
  </defs>
  <sodipodi:namedview
     id="base"
     pagecolor="#ffffff"
     bordercolor="#666666"
     borderopacity="1.0"
     inkscape:pageopacity="0.0"
     inkscape:pageshadow="2"
     inkscape:zoom="11.2"
     inkscape:cx="185.62144"
     inkscape:cy="7.1950938"
     inkscape:document-units="px"
     inkscape:current-layer="layer1"
     showgrid="false"
     inkscape:window-width="1362"
     inkscape:window-height="710"
     inkscape:window-x="-1"
     inkscape:window-y="-3"
     inkscape:window-maximized="1" />
  <metadata
     id="metadata9997">
    <rdf:RDF>
      <cc:Work
         rdf:about="">
        <dc:format>image/svg+xml</dc:format>
        <dc:type
           rdf:resource="http://purl.org/dc/dcmitype/StillImage" />
        <dc:title />
      </cc:Work>
    </rdf:RDF>
  </metadata>
  <g
     inkscape:label="Calque 1"
     inkscape:groupmode="layer"
     id="layer1"
     transform="translate(-389.45807,-526.86833)">
    <path
       style="fill:url(#linearGradient9990)"
       id="path9496"
       d="m 546.41707,534.47333 -1.25,0 0,1.107 1.25,-1.107 m 10.762,0 -3.893,0 0,3.933 1.602,0 c 1.962,0 2.637,-1.386 2.637,-2.556 0,-0.457 -0.104,-0.948 -0.346,-1.377 m 18.301,0 -0.361,0 -2.186,2.34 2.547,0 0,-2.34 m 3.609,5.049 c -0.351,0 -0.657,-0.279 -0.657,-0.639 0,-0.351 0.306,-0.639 0.657,-0.639 0.36,0 0.648,0.288 0.648,0.648 0,0.351 -0.288,0.63 -0.648,0.63 m 14.103,-5.049 -16.524,0 0,2.34 0.918,0 0,0.801 -0.918,0 0,1.719 -1.188,0 0,-1.719 -3.519,0 0,-0.801 2.118,-2.34 -11.685,0 0,0.873 3.222,0 0,0.891 -3.222,0 0,2.214 4.806,0 0,0.882 -6.138,0 0,-4.86 -2.362,0 c 0.153,0.394 0.238,0.851 0.238,1.377 0,2.574 -2.043,3.483 -4.05,3.483 l -2.925,0 0,-4.86 -4.145,0 -1.174,1.035 3.663,3.825 -1.872,0 -3.267,-3.456 0,3.456 -1.332,0 0,-4.86 -154.098,0 0,8.883 0.036,0 203.418,0 0,-8.883"
       sodipodi:nodetypes="ccccccccscccccccsssccccccccccccccccccccccccscccccccccccccccc" />
    <path
       style="fill:url(#linearGradient9892)"
       id="path9503"
       d="m 575.48007,534.08633 -0.361,0.387 0.361,0 0,-0.387 m -20.592,-0.801 -1.602,0 0,1.188 3.893,0 c -0.378,-0.669 -1.095,-1.188 -2.291,-1.188 m 38.331,-6.272 -0.126,0 -203.238,0 -0.126,0 0,7.461 0.009,0 154.098,0 0,-2.116 1.332,0 0,2.115 1.25,0 2.387,-2.115 1.413,0 -2.399,2.115 4.145,0 0,-2.115 2.925,0 c 1.597,0 3.216,0.581 3.812,2.115 l 2.362,0 0,-2.115 6.084,0 0,0.873 -4.752,0 0,1.242 11.685,0 1.915,-2.115 0.675,0 0,2.115 7.592,0 8.932,0 0.027,0 0,-7.46"
       sodipodi:nodetypes="ccccccccccccccccccccccccccccccccccccccccc" />
    <polyline
       transform="translate(388.77107,526.86833)"
       style="fill:#808dc6"
       id="polyline9505"
       points="204.623,16.362 0.687,16.362 0.687,16.702 204.623,16.702 204.623,16.362  " />
    <polyline
       transform="translate(388.77107,526.86833)"
       style="fill:#808dc6"
       id="polyline9507"
       points="204.623,0 0.687,0 0.687,0.299 204.623,0.299 204.623,0  " />
    <polyline
       transform="translate(388.77107,526.86833)"
       style="fill:#808dc6"
       id="polyline9509"
       points="0.962,16.382 0.962,0 0.691,0 0.691,16.382 0.962,16.382  " />
    <polyline
       transform="translate(388.77107,526.86833)"
       style="fill:#808dc6"
       id="polyline9511"
       points="204.628,16.695 204.628,0.313 204.358,0.313 204.357,16.695 204.628,16.695  " />
    <polyline
       transform="translate(388.77107,526.86833)"
       style="fill:url(#SVGID_17_)"
       id="polyline9636"
       points="159.047,7.605 157.646,7.605 156.397,8.712 156.397,7.605 155.065,7.605 155.065,12.465    156.397,12.465 156.397,9.009 159.664,12.465 161.536,12.465 157.873,8.64 159.047,7.605  " />
    <path
       style="fill:url(#linearGradient9844)"
       id="path9643"
       d="m 545.16807,532.35833 h -1.332 v 2.115 h 1.332 v -2.115 m 5.049,0 h -1.413 l -2.387,2.115 h 1.4 l 2.4,-2.115" />
    <path
       style="fill:url(#linearGradient9841)"
       id="path9650"
       d="m 558.70007,534.47333 h -1.521 c 0.242,0.429 0.346,0.92 0.346,1.377 0,1.17 -0.675,2.556 -2.637,2.556 h -1.602 v -3.933 h -1.323 v 4.86 h 2.925 c 2.007,0 4.05,-0.909 4.05,-3.483 0,-0.526 -0.085,-0.982 -0.238,-1.377" />
    <path
       style="fill:url(#linearGradient9838)"
       id="path9657"
       d="m 554.88807,532.35833 h -2.925 v 2.115 h 1.323 v -1.188 h 1.602 c 1.195,0 1.913,0.518 2.291,1.188 h 1.521 c -0.596,-1.534 -2.215,-2.115 -3.812,-2.115" />
    <polyline
       transform="translate(388.77107,526.86833)"
       style="fill:url(#SVGID_21_)"
       id="polyline9664"
       points="173.623,7.605 172.291,7.605 172.291,12.465 178.429,12.465 178.429,11.583    173.623,11.583 173.623,9.369 176.845,9.369 176.845,8.479 173.623,8.479 173.623,7.605  " />
    <polyline
       transform="translate(388.77107,526.86833)"
       style="fill:url(#SVGID_22_)"
       id="polyline9671"
       points="178.375,5.49 172.291,5.49 172.291,7.605 173.623,7.605 173.623,6.363 178.375,6.363    178.375,5.49  " />
    <polyline
       transform="translate(388.77107,526.86833)"
       style="fill:url(#SVGID_23_)"
       id="polyline9678"
       points="187.897,7.605 186.709,7.605 186.709,9.945 184.162,9.945 186.348,7.605 185.308,7.605    183.19,9.945 183.19,10.746 186.709,10.746 186.709,12.465 187.897,12.465 187.897,10.746 188.815,10.746 188.815,9.945    187.897,9.945 187.897,7.605  " />
    <polyline
       transform="translate(388.77107,526.86833)"
       style="fill:url(#SVGID_24_)"
       id="polyline9685"
       points="187.897,5.49 187.222,5.49 185.308,7.605 186.348,7.605 186.709,7.218 186.709,7.605    187.897,7.605 187.897,5.49  " />
    <path
       style="fill:url(#linearGradient9831)"
       id="path9692"
       d="m 579.08907,538.24433 c -0.351,0 -0.657,0.288 -0.657,0.639 0,0.36 0.306,0.639 0.657,0.639 0.36,0 0.648,-0.279 0.648,-0.63 0,-0.36 -0.288,-0.648 -0.648,-0.648" />
    <path
       style="fill:#ffffff"
       id="path10995"
       d="m 398.37207,536.02362 h -2.531 v 2.447 h -1.523 v -8 h 4.461 c 1.919,0 3.154,0.636 3.154,2.603 0.001,2.351 -1.415,2.95 -3.561,2.95 z m 0.024,-4.545 h -2.555 v 3.538 h 2.099 c 1.631,0 2.278,-0.372 2.278,-1.943 10e-4,-1.056 -0.659,-1.595 -1.822,-1.595 z" />
    <path
       style="fill:#ffffff"
       id="path10997"
       d="m 406.74807,538.66262 c -2.291,0 -3.394,-1.523 -3.394,-3.226 0,-1.703 1.104,-3.227 3.394,-3.227 2.291,0 3.394,1.523 3.394,3.227 0,1.704 -1.103,3.226 -3.394,3.226 z m 0,-5.625 c -0.492,0 -1.859,0.276 -1.859,2.399 0,2.123 1.367,2.398 1.859,2.398 0.492,0 1.859,-0.276 1.859,-2.398 0,-2.123 -1.367,-2.399 -1.859,-2.399 z" />
    <polygon
       transform="translate(387.32407,526.44562)"
       style="fill:#ffffff"
       id="polygon10999"
       points="27.573,12.025 26.217,12.025 24.13,5.944 25.605,5.944 27.105,10.418 28.604,5.944 29.959,5.944 31.458,10.418 32.958,5.944 34.025,5.944 31.926,12.025 30.535,12.025 29.108,7.54 " />
    <path
       style="fill:#ffffff"
       id="path11001"
       d="m 424.05307,535.25662 v 0.18 c 0,2.123 1.367,2.398 1.859,2.398 0.84,0 1.751,-0.336 2.195,-0.684 v 0.972 c -0.336,0.192 -1.091,0.54 -2.195,0.54 -2.291,0 -3.394,-1.523 -3.394,-3.226 0,-1.703 1.164,-3.227 3.31,-3.227 1.667,0 2.747,1.343 2.747,3.046 l -4.522,10e-4 0,0 z m 3.143,-0.84 c 0,-0.756 -0.408,-1.379 -1.283,-1.379 -0.419,0 -1.439,0.192 -1.763,1.487 h 3.046 v -0.108 z" />
    <path
       style="fill:#ffffff"
       id="path11003"
       d="m 432.98107,533.26562 c -0.54,0 -1.092,0.156 -1.332,0.647 v 4.558 h -1.463 v -6.081 h 1.463 v 0.444 c 0.372,-0.324 0.924,-0.6 1.751,-0.624 v 1.08 c -0.132,-0.012 -0.276,-0.024 -0.419,-0.024 z" />
    <path
       style="fill:#ffffff"
       id="path11005"
       d="m 439.35107,536.02362 h -2.531 v 2.447 h -1.523 v -8 h 4.461 c 1.919,0 3.154,0.636 3.154,2.603 10e-4,2.351 -1.414,2.95 -3.561,2.95 z m 0.024,-4.545 h -2.555 v 3.538 h 2.099 c 1.631,0 2.278,-0.372 2.278,-1.943 10e-4,-1.056 -0.659,-1.595 -1.822,-1.595 z" />
    <path
       style="fill:#ffffff"
       id="path11007"
       d="m 446.94907,538.66262 c -1.308,0 -2.663,-0.516 -2.663,-2.039 0,-1.823 1.691,-2.195 2.842,-2.195 0.624,0 1.151,0.084 1.463,0.156 -0.048,-0.768 0.096,-1.547 -1.607,-1.547 -0.576,0 -1.547,0.312 -1.955,0.54 v -0.972 c 0.384,-0.156 1.175,-0.396 2.015,-0.396 2.555,0 3.01,1.176 3.01,3.07 v 2.807 c -0.839,0.336 -2.014,0.576 -3.105,0.576 z m 1.643,-3.238 c -0.336,-0.084 -0.948,-0.168 -1.224,-0.168 -0.887,0 -1.547,0.348 -1.547,1.319 0,0.875 0.792,1.248 1.475,1.248 0.3,0 0.804,-0.048 1.295,-0.204 l 10e-4,-2.195 0,0 z" />
    <path
       style="fill:#ffffff"
       id="path11009"
       d="m 455.10807,538.66262 c -2.291,0 -3.394,-1.523 -3.394,-3.226 0,-1.703 1.104,-3.227 3.394,-3.227 0.852,0 1.571,0.36 1.907,0.552 v 0.972 c -0.42,-0.396 -1.067,-0.696 -1.907,-0.696 -0.492,0 -1.859,0.276 -1.859,2.399 0,2.123 1.367,2.398 1.859,2.398 0.84,0 1.487,-0.288 1.907,-0.684 v 0.972 c -0.336,0.192 -1.056,0.54 -1.907,0.54 z" />
    <polygon
       transform="translate(387.32407,526.44562)"
       style="fill:#ffffff"
       id="polygon11011"
       points="72.717,3.461 72.717,8.559 75.775,5.944 77.022,5.944 74.18,8.403 77.274,12.025 75.367,12.025 72.717,8.918 72.717,12.025 71.254,12.025 71.254,3.461 " />
    <polyline
       transform="translate(397.21524,526.88974)"
       style="fill:url(#linearGradient4273)"
       id="polyline9685-6"
       points="187.897,5.49 187.222,5.49 185.308,7.605 186.348,7.605 186.709,7.218 186.709,7.605    187.897,7.605 187.897,5.49  " />
    <polyline
       transform="translate(397.21546,526.87464)"
       style="fill:url(#linearGradient4308)"
       id="polyline9678-4"
       points="187.897,7.605 186.709,7.605 186.709,9.945 184.162,9.945 186.348,7.605 185.308,7.605    183.19,9.945 183.19,10.746 186.709,10.746 186.709,12.465 187.897,12.465 187.897,10.746 188.815,10.746 188.815,9.945    187.897,9.945 187.897,7.605  " />
  </g>
</svg>
