<?xml version="1.0" encoding="UTF-8" standalone="no"?>
<!-- Created with Inkscape (http://www.inkscape.org/) -->

<svg
   xmlns:dc="http://purl.org/dc/elements/1.1/"
   xmlns:cc="http://creativecommons.org/ns#"
   xmlns:rdf="http://www.w3.org/1999/02/22-rdf-syntax-ns#"
   xmlns:svg="http://www.w3.org/2000/svg"
   xmlns="http://www.w3.org/2000/svg"
   xmlns:xlink="http://www.w3.org/1999/xlink"
   xmlns:sodipodi="http://sodipodi.sourceforge.net/DTD/sodipodi-0.dtd"
   xmlns:inkscape="http://www.inkscape.org/namespaces/inkscape"
   width="61.380001"
   height="24.966999"
   id="svg10243"
   version="1.1"
   inkscape:version="0.47pre3 r22311"
   sodipodi:docname="Nouveau document 23">
  <defs
     id="defs10245">
    <inkscape:perspective
       sodipodi:type="inkscape:persp3d"
       inkscape:vp_x="0 : 526.18109 : 1"
       inkscape:vp_y="0 : 1000 : 0"
       inkscape:vp_z="744.09448 : 526.18109 : 1"
       inkscape:persp3d-origin="372.04724 : 350.78739 : 1"
       id="perspective10251" />
    <inkscape:perspective
       id="perspective10174"
       inkscape:persp3d-origin="0.5 : 0.33333333 : 1"
       inkscape:vp_z="1 : 0.5 : 1"
       inkscape:vp_y="0 : 1000 : 0"
       inkscape:vp_x="0 : 0.5 : 1"
       sodipodi:type="inkscape:persp3d" />
    <radialGradient
       inkscape:collect="always"
       xlink:href="#SVGID_16_"
       id="radialGradient9848"
       gradientUnits="userSpaceOnUse"
       gradientTransform="matrix(24.7832,0,0,-23.5,-3326.6363,10750.008)"
       cx="152.83299"
       cy="438.0303"
       r="1" />
    <radialGradient
       gradientUnits="userSpaceOnUse"
       gradientTransform="matrix(24.7832,0,0,-23.5,-3753.8503,10570.261)"
       r="1"
       cy="438.0303"
       cx="152.83299"
       id="SVGID_16_">
      <stop
         id="stop9623"
         style="stop-color:#C4EBF1"
         offset="0" />
      <stop
         id="stop9625"
         style="stop-color:#B5DCF0"
         offset="0.4176" />
      <stop
         id="stop9627"
         style="stop-color:#B6C2CB"
         offset="1" />
    </radialGradient>
    <radialGradient
       inkscape:collect="always"
       xlink:href="#SVGID_15_"
       id="radialGradient9851"
       gradientUnits="userSpaceOnUse"
       gradientTransform="matrix(40.9999,0,0,-40.9999,-5802.5829,18405.466)"
       cx="152.83299"
       cy="438.0303"
       r="1" />
    <radialGradient
       gradientUnits="userSpaceOnUse"
       gradientTransform="matrix(40.9999,0,0,-40.9999,-6229.7969,18225.719)"
       r="1"
       cy="438.0303"
       cx="152.83299"
       id="SVGID_15_">
      <stop
         id="stop9614"
         style="stop-color:#E2F4F6"
         offset="0" />
      <stop
         id="stop9616"
         style="stop-color:#B5DCF0"
         offset="0.4176" />
      <stop
         id="stop9618"
         style="stop-color:#B6C2CB"
         offset="1" />
    </radialGradient>
    <radialGradient
       inkscape:collect="always"
       xlink:href="#SVGID_14_"
       id="radialGradient9854"
       gradientUnits="userSpaceOnUse"
       gradientTransform="matrix(24.7832,0,0,-23.5,-3326.6363,10750.008)"
       cx="152.83299"
       cy="438.0303"
       r="1" />
    <radialGradient
       gradientUnits="userSpaceOnUse"
       gradientTransform="matrix(24.7832,0,0,-23.5,-3753.8503,10570.261)"
       r="1"
       cy="438.0303"
       cx="152.83299"
       id="SVGID_14_">
      <stop
         id="stop9605"
         style="stop-color:#3BBECF"
         offset="0" />
      <stop
         id="stop9607"
         style="stop-color:#098BCC"
         offset="0.4176" />
      <stop
         id="stop9609"
         style="stop-color:#0C3453"
         offset="1" />
    </radialGradient>
    <radialGradient
       inkscape:collect="always"
       xlink:href="#SVGID_13_"
       id="radialGradient9857"
       gradientUnits="userSpaceOnUse"
       gradientTransform="matrix(40.9999,0,0,-40.9999,-5802.5829,18405.466)"
       cx="152.83299"
       cy="438.0303"
       r="1" />
    <radialGradient
       gradientUnits="userSpaceOnUse"
       gradientTransform="matrix(40.9999,0,0,-40.9999,-6229.7969,18225.719)"
       r="1"
       cy="438.0303"
       cx="152.83299"
       id="SVGID_13_">
      <stop
         id="stop9596"
         style="stop-color:#A0D9E2"
         offset="0" />
      <stop
         id="stop9598"
         style="stop-color:#098BCC"
         offset="0.4176" />
      <stop
         id="stop9600"
         style="stop-color:#0C3453"
         offset="1" />
    </radialGradient>
    <radialGradient
       inkscape:collect="always"
       xlink:href="#SVGID_12_"
       id="radialGradient9860"
       gradientUnits="userSpaceOnUse"
       gradientTransform="matrix(39.9431,0,0,-37.8751,-5644.2347,17049.352)"
       cx="152.83299"
       cy="438.0303"
       r="1" />
    <radialGradient
       gradientUnits="userSpaceOnUse"
       gradientTransform="matrix(39.9431,0,0,-37.8751,-6071.4487,16869.605)"
       r="1"
       cy="438.0303"
       cx="152.83299"
       id="SVGID_12_">
      <stop
         id="stop9585"
         style="stop-color:#E7E6E6"
         offset="0" />
      <stop
         id="stop9587"
         style="stop-color:#B3B3B4"
         offset="0.4422" />
      <stop
         id="stop9589"
         style="stop-color:#8E9091"
         offset="0.8068" />
      <stop
         id="stop9591"
         style="stop-color:#808284"
         offset="1" />
    </radialGradient>
    <linearGradient
       inkscape:collect="always"
       xlink:href="#SVGID_11_"
       id="linearGradient9863"
       gradientUnits="userSpaceOnUse"
       gradientTransform="matrix(1.333281e-7,11.1807,11.1807,-1.333281e-7,-4435.3968,-1274.5194)"
       x1="152.83299"
       y1="438.0303"
       x2="153.83299"
       y2="438.0303" />
    <linearGradient
       gradientTransform="matrix(1.333281e-7,11.1807,11.1807,-1.333281e-7,-4862.6108,-1454.2668)"
       y2="438.0303"
       x2="153.83299"
       y1="438.0303"
       x1="152.83299"
       gradientUnits="userSpaceOnUse"
       id="SVGID_11_">
      <stop
         id="stop9574"
         style="stop-color:#FFFFFF"
         offset="0" />
      <stop
         id="stop9576"
         style="stop-color:#D7D8D9"
         offset="0.285" />
      <stop
         id="stop9578"
         style="stop-color:#999A9C"
         offset="0.7699" />
      <stop
         id="stop9580"
         style="stop-color:#808284"
         offset="1" />
    </linearGradient>
    <radialGradient
       inkscape:collect="always"
       xlink:href="#SVGID_10_"
       id="radialGradient9866"
       gradientUnits="userSpaceOnUse"
       gradientTransform="matrix(36.4883,0,0,-34.5991,-5116.1171,15611.872)"
       cx="152.83299"
       cy="438.0303"
       r="1" />
    <radialGradient
       gradientUnits="userSpaceOnUse"
       gradientTransform="matrix(36.4883,0,0,-34.5991,-5543.3311,15432.125)"
       r="1"
       cy="438.0303"
       cx="152.83299"
       id="SVGID_10_">
      <stop
         id="stop9565"
         style="stop-color:#808DC6"
         offset="0" />
      <stop
         id="stop9567"
         style="stop-color:#272F50"
         offset="0.6898" />
      <stop
         id="stop9569"
         style="stop-color:#000000"
         offset="1" />
    </radialGradient>
    <radialGradient
       inkscape:collect="always"
       xlink:href="#SVGID_9_"
       id="radialGradient9869"
       gradientUnits="userSpaceOnUse"
       gradientTransform="matrix(57.1153,0,0,-57.1153,-8266.6581,25461.028)"
       cx="152.83299"
       cy="438.0303"
       r="1" />
    <radialGradient
       gradientUnits="userSpaceOnUse"
       gradientTransform="matrix(57.1153,0,0,-57.1153,-8693.8721,25281.281)"
       r="1"
       cy="438.0303"
       cx="152.83299"
       id="SVGID_9_">
      <stop
         id="stop9556"
         style="stop-color:#808DC6"
         offset="0" />
      <stop
         id="stop9558"
         style="stop-color:#272F50"
         offset="0.6898" />
      <stop
         id="stop9560"
         style="stop-color:#000000"
         offset="1" />
    </radialGradient>
    <radialGradient
       inkscape:collect="always"
       xlink:href="#SVGID_8_"
       id="radialGradient9872"
       gradientUnits="userSpaceOnUse"
       gradientTransform="matrix(39.9431,0,0,-37.8751,-5644.2347,17049.352)"
       cx="152.83299"
       cy="438.0303"
       r="1" />
    <radialGradient
       gradientUnits="userSpaceOnUse"
       gradientTransform="matrix(39.9431,0,0,-37.8751,-6071.4487,16869.605)"
       r="1"
       cy="438.0303"
       cx="152.83299"
       id="SVGID_8_">
      <stop
         id="stop9545"
         style="stop-color:#E7E6E6"
         offset="0" />
      <stop
         id="stop9547"
         style="stop-color:#B3B3B4"
         offset="0.4422" />
      <stop
         id="stop9549"
         style="stop-color:#8E9091"
         offset="0.8068" />
      <stop
         id="stop9551"
         style="stop-color:#808284"
         offset="1" />
    </radialGradient>
    <linearGradient
       inkscape:collect="always"
       xlink:href="#SVGID_7_"
       id="linearGradient9875"
       gradientUnits="userSpaceOnUse"
       gradientTransform="matrix(1.333281e-7,11.1807,11.1807,-1.333281e-7,-4435.3968,-1274.5194)"
       x1="152.83299"
       y1="438.0303"
       x2="153.8325"
       y2="438.0303" />
    <linearGradient
       gradientTransform="matrix(1.333281e-7,11.1807,11.1807,-1.333281e-7,-4862.6108,-1454.2668)"
       y2="438.0303"
       x2="153.8325"
       y1="438.0303"
       x1="152.83299"
       gradientUnits="userSpaceOnUse"
       id="SVGID_7_">
      <stop
         id="stop9534"
         style="stop-color:#FFFFFF"
         offset="0" />
      <stop
         id="stop9536"
         style="stop-color:#D7D8D9"
         offset="0.285" />
      <stop
         id="stop9538"
         style="stop-color:#999A9C"
         offset="0.7699" />
      <stop
         id="stop9540"
         style="stop-color:#808284"
         offset="1" />
    </linearGradient>
  </defs>
  <sodipodi:namedview
     id="base"
     pagecolor="#ffffff"
     bordercolor="#666666"
     borderopacity="1.0"
     inkscape:pageopacity="0.0"
     inkscape:pageshadow="2"
     inkscape:zoom="1.979899"
     inkscape:cx="-56.385"
     inkscape:cy="-73.145783"
     inkscape:document-units="px"
     inkscape:current-layer="layer1"
     showgrid="false"
     inkscape:window-width="1276"
     inkscape:window-height="742"
     inkscape:window-x="0"
     inkscape:window-y="0"
     inkscape:window-maximized="1" />
  <metadata
     id="metadata10248">
    <rdf:RDF>
      <cc:Work
         rdf:about="">
        <dc:format>image/svg+xml</dc:format>
        <dc:type
           rdf:resource="http://purl.org/dc/dcmitype/StillImage" />
        <dc:title></dc:title>
      </cc:Work>
    </rdf:RDF>
  </metadata>
  <g
     inkscape:label="Calque 1"
     inkscape:groupmode="layer"
     id="layer1"
     transform="translate(-431.385,-434.2494)">
    <path
       style="fill:url(#linearGradient9875)"
       id="path9542"
       d="m 490.947,434.2494 h -57.744 c -0.999,0 -1.818,0.774 -1.818,1.729 v 7.209 c 3.285,1.395 21.969,2.241 26.685,2.241 4.725,0 31.41,-0.847 34.695,-2.241 v -7.209 c 0,-0.955 -0.819,-1.729 -1.818,-1.729" />
    <path
       style="fill:url(#radialGradient9872)"
       id="path9553"
       d="m 431.385,443.1864 0,0 v 14.301 c 0,0.954 0.819,1.729 1.818,1.729 h 57.744 c 0.999,0 1.818,-0.774 1.818,-1.729 l 0,0 c 0,0.954 -0.819,1.729 -1.818,1.729 h -57.744 c -0.999,0 -1.818,-0.774 -1.818,-1.729 v -14.301 l 0,0" />
    <path
       style="fill:url(#radialGradient9869)"
       id="path9562"
       d="m 488.49,437.0584 h -52.92 c -0.864,0 -1.575,0.675 -1.575,1.494 v 4.257 c 2.844,1.206 22.887,1.943 26.982,1.943 4.086,0 26.244,-0.737 29.097,-1.952 v -4.248 c 0,-0.82 -0.711,-1.494 -1.584,-1.494" />
    <path
       style="fill:url(#radialGradient9866)"
       id="path9571"
       d="m 460.977,444.7524 c -4.095,0 -24.138,-0.737 -26.982,-1.943 v 12.393 c 0,0.819 0.711,1.485 1.575,1.485 h 52.92 c 0.873,0 1.584,-0.666 1.584,-1.485 v -12.401 c -2.853,1.214 -25.011,1.951 -29.097,1.951" />
    <path
       style="fill:url(#linearGradient9863)"
       id="path9582"
       d="m 490.947,434.2494 h -57.744 c -0.999,0 -1.818,0.774 -1.818,1.729 l 0,0 v 7.209 l 0,0 c 0.521,0.222 1.431,0.429 2.61,0.621 v -0.999 l 0,0 v -4.257 c 0,-0.819 0.711,-1.494 1.575,-1.494 h 2.259 l 0,0 h 1.026 l 0,0 h 49.635 c 0.873,0 1.584,0.675 1.584,1.494 v 4.248 l 0,0 v 0.947 c 1.283,-0.175 2.224,-0.362 2.691,-0.561 v -4.293 -2.916 c 0,-0.954 -0.819,-1.728 -1.818,-1.728" />
    <path
       style="fill:url(#radialGradient9860)"
       id="path9593"
       d="m 492.765,443.1864 0,0 c -0.467,0.198 -1.408,0.386 -2.691,0.561 v 11.454 c 0,0.819 -0.711,1.485 -1.584,1.485 h -52.92 c -0.864,0 -1.575,-0.666 -1.575,-1.485 v -11.394 c -1.18,-0.192 -2.089,-0.399 -2.61,-0.621 l 0,0 v 14.301 c 0,0.954 0.819,1.729 1.818,1.729 h 57.744 c 0.999,0 1.818,-0.774 1.818,-1.729 l 0,0 v -14.301" />
    <path
       style="fill:url(#radialGradient9857)"
       id="path9602"
       d="m 437.829,437.0584 h -2.259 c -0.864,0 -1.575,0.675 -1.575,1.494 v 4.257 l 0,0 c 1.135,0.481 5.009,0.888 9.516,1.203 -3.088,-2.55 -4.82,-5.275 -5.682,-6.954 m 50.661,0 h -49.635 c 0.324,0.594 0.747,1.287 1.296,2.061 1.117,1.547 2.725,3.346 4.974,5.001 6.421,0.407 13.584,0.633 15.853,0.633 1.563,0 5.773,-0.107 10.536,-0.31 l -0.393,-0.482 c -0.198,-0.245 -0.138,-0.414 0.119,-0.414 0.035,0 0.073,0.003 0.115,0.01 l 4.248,0.684 c 0.022,0.004 0.046,0.007 0.069,0.009 0.075,-0.004 0.149,-0.008 0.224,-0.012 0.284,-0.049 0.568,-0.219 0.714,-0.438 l 2.331,-3.618 c 0.089,-0.134 0.178,-0.2 0.254,-0.2 0.094,0 0.17,0.101 0.205,0.299 l 0.575,3.72 c 4.841,-0.315 8.973,-0.721 10.099,-1.199 v -4.248 c 0,-0.822 -0.711,-1.496 -1.584,-1.496" />
    <path
       style="fill:url(#radialGradient9854)"
       id="path9611"
       d="m 475.896,444.2364 c -0.075,0.004 -0.149,0.008 -0.224,0.012 0.021,0.002 0.043,0.003 0.065,0.003 0.052,0 0.105,-0.006 0.159,-0.015 m -30.771,-0.117 c 1.048,0.771 2.235,1.512 3.576,2.182 5.257,2.642 13.717,3.177 19.247,3.177 0.046,0 0.093,0 0.139,0 3.204,0 5.382,-0.162 5.391,-0.162 l 0.477,-0.927 c 0.162,-0.315 0.108,-0.811 -0.117,-1.089 l -2.325,-2.857 c -4.762,0.202 -8.972,0.31 -10.536,0.31 -2.268,-10e-4 -9.431,-0.227 -15.852,-0.634 m 44.949,-1.319 0,0 c -1.125,0.479 -5.257,0.884 -10.099,1.199 l 0.082,0.528 c 0.054,0.36 0.387,0.729 0.738,0.819 l 4.158,1.106 c 0.342,0.09 0.369,0.297 0.045,0.459 l -3.834,1.944 c -0.324,0.162 -0.576,0.594 -0.549,0.954 l 0.234,4.293 c 0.011,0.219 -0.055,0.335 -0.165,0.335 -0.07,0 -0.159,-0.048 -0.258,-0.146 -0.432,0.045 -6.912,0.757 -14.715,0.757 -5.157,0 -10.89,-0.315 -15.831,-1.332 -9.495,-1.963 -14.031,-4.824 -15.858,-6.31 v -1.206 c 0.09,0.09 0.207,0.198 0.36,0.333 0.513,0.433 1.341,1.053 2.574,1.765 2.475,1.412 6.588,3.186 13.113,4.535 4.833,0.999 10.521,1.306 15.642,1.306 6.426,0 11.943,-0.478 13.896,-0.675 l -2.214,-2.224 c -0.184,-0.178 -0.475,-0.283 -0.75,-0.283 -0.116,0 -0.229,0.019 -0.33,0.059 l -4.005,1.548 c -0.083,0.032 -0.153,0.048 -0.21,0.048 -0.18,0 -0.228,-0.151 -0.105,-0.39 l 1.008,-1.972 c -0.837,0.045 -2.61,0.126 -4.914,0.126 -5.589,0 -14.193,-0.477 -19.791,-3.267 -1.873,-0.935 -3.455,-2.001 -4.785,-3.099 -4.507,-0.315 -8.381,-0.722 -9.516,-1.203 l 0,0 v 0.999 11.394 c 0,0.819 0.711,1.485 1.575,1.485 h 52.92 c 0.873,0 1.584,-0.666 1.584,-1.485 v -11.453 -0.947" />
    <path
       style="fill:url(#radialGradient9851)"
       id="path9620"
       d="m 471.239,443.5464 c -0.257,0 -0.317,0.169 -0.119,0.414 l 0.393,0.482 c 1.357,-0.057 2.76,-0.122 4.159,-0.194 -0.023,-0.002 -0.047,-0.005 -0.069,-0.009 l -4.248,-0.684 c -0.043,-0.006 -0.081,-0.009 -0.116,-0.009 m 7.956,-3.566 c -0.077,0 -0.166,0.066 -0.254,0.2 l -2.331,3.618 c -0.146,0.219 -0.431,0.389 -0.714,0.438 1.382,-0.072 2.757,-0.151 4.08,-0.237 l -0.575,-3.72 c -0.036,-0.198 -0.111,-0.299 -0.206,-0.299 m -40.34,-2.922 h -1.026 c 0.861,1.68 2.594,4.404 5.682,6.954 0.53,0.037 1.069,0.072 1.613,0.107 -2.249,-1.655 -3.856,-3.454 -4.974,-5.001 -0.548,-0.773 -0.971,-1.467 -1.295,-2.06" />
    <path
       style="fill:url(#radialGradient9848)"
       id="path9629"
       d="m 479.975,443.9994 c -1.322,0.086 -2.698,0.165 -4.08,0.237 -0.053,0.009 -0.106,0.015 -0.159,0.015 -0.022,0 -0.044,-10e-4 -0.065,-0.003 -1.398,0.072 -2.801,0.138 -4.159,0.194 l 2.325,2.857 c 0.225,0.278 0.279,0.773 0.117,1.089 l -0.477,0.927 c -0.009,0 -2.187,0.162 -5.391,0.162 -0.046,0 -0.093,0 -0.139,0 -5.53,0 -13.99,-0.535 -19.247,-3.177 -1.341,-0.67 -2.528,-1.41 -3.576,-2.182 -0.544,-0.035 -1.083,-0.07 -1.613,-0.107 1.33,1.098 2.912,2.164 4.785,3.099 5.598,2.79 14.202,3.267 19.791,3.267 2.304,0 4.077,-0.081 4.914,-0.126 l -1.008,1.972 c -0.123,0.238 -0.075,0.39 0.105,0.39 0.057,0 0.127,-0.016 0.21,-0.048 l 4.005,-1.548 c 0.101,-0.04 0.214,-0.059 0.33,-0.059 0.275,0 0.566,0.105 0.75,0.283 l 2.214,2.224 c -1.953,0.197 -7.47,0.675 -13.896,0.675 -5.121,0 -10.809,-0.307 -15.642,-1.306 -6.525,-1.35 -10.638,-3.123 -13.113,-4.535 -1.233,-0.712 -2.061,-1.332 -2.574,-1.765 -0.153,-0.135 -0.27,-0.243 -0.36,-0.333 v 1.206 c 1.827,1.485 6.363,4.347 15.858,6.31 4.941,1.017 10.674,1.332 15.831,1.332 7.803,0 14.283,-0.712 14.715,-0.757 0.099,0.099 0.188,0.146 0.258,0.146 0.11,0 0.176,-0.116 0.165,-0.335 l -0.234,-4.293 c -0.027,-0.36 0.225,-0.792 0.549,-0.954 l 3.834,-1.944 c 0.324,-0.162 0.297,-0.369 -0.045,-0.459 l -4.158,-1.106 c -0.351,-0.091 -0.684,-0.459 -0.738,-0.819 l -0.082,-0.529" />
  </g>
</svg>
